<?xml version="1.0" encoding="UTF-8"?>
<svg xmlns="http://www.w3.org/2000/svg" xmlns:xlink="http://www.w3.org/1999/xlink" width="420pt" height="315pt" viewBox="0 0 420 315" version="1.1">
<g id="surface1">
<rect x="0" y="0" width="420" height="315" style="fill:rgb(95.689392%,94.509888%,92.549133%);fill-opacity:1;stroke:none;"/>
<rect x="0" y="0" width="420" height="315" style="fill:rgb(95.689392%,94.509888%,92.549133%);fill-opacity:1;stroke:none;"/>
<path style=" stroke:none;fill-rule:nonzero;fill:rgb(100%,100%,100%);fill-opacity:1;" d="M 54.75 280.5 L 380.25 280.5 L 380.25 23.25 L 54.75 23.25 Z M 54.75 280.5 "/>
<path style="fill:none;stroke-width:0.666667;stroke-linecap:butt;stroke-linejoin:round;stroke:rgb(14.898682%,14.898682%,14.898682%);stroke-opacity:0.14902;stroke-miterlimit:10;" d="M 92.729167 374 L 92.729167 31 " transform="matrix(0.75,0,0,0.75,0,0)"/>
<path style="fill:none;stroke-width:0.666667;stroke-linecap:butt;stroke-linejoin:round;stroke:rgb(14.898682%,14.898682%,14.898682%);stroke-opacity:0.14902;stroke-miterlimit:10;" d="M 171.635417 374 L 171.635417 31 " transform="matrix(0.75,0,0,0.75,0,0)"/>
<path style="fill:none;stroke-width:0.666667;stroke-linecap:butt;stroke-linejoin:round;stroke:rgb(14.898682%,14.898682%,14.898682%);stroke-opacity:0.14902;stroke-miterlimit:10;" d="M 250.546875 374 L 250.546875 31 " transform="matrix(0.75,0,0,0.75,0,0)"/>
<path style="fill:none;stroke-width:0.666667;stroke-linecap:butt;stroke-linejoin:round;stroke:rgb(14.898682%,14.898682%,14.898682%);stroke-opacity:0.14902;stroke-miterlimit:10;" d="M 329.453125 374 L 329.453125 31 " transform="matrix(0.75,0,0,0.75,0,0)"/>
<path style="fill:none;stroke-width:0.666667;stroke-linecap:butt;stroke-linejoin:round;stroke:rgb(14.898682%,14.898682%,14.898682%);stroke-opacity:0.14902;stroke-miterlimit:10;" d="M 408.364583 374 L 408.364583 31 " transform="matrix(0.75,0,0,0.75,0,0)"/>
<path style="fill:none;stroke-width:0.666667;stroke-linecap:butt;stroke-linejoin:round;stroke:rgb(14.898682%,14.898682%,14.898682%);stroke-opacity:0.14902;stroke-miterlimit:10;" d="M 487.270833 374 L 487.270833 31 " transform="matrix(0.75,0,0,0.75,0,0)"/>
<path style="fill:none;stroke-width:0.666667;stroke-linecap:butt;stroke-linejoin:round;stroke:rgb(14.898682%,14.898682%,14.898682%);stroke-opacity:0.14902;stroke-miterlimit:10;" d="M 507 374 L 73 374 " transform="matrix(0.75,0,0,0.75,0,0)"/>
<path style="fill:none;stroke-width:0.666667;stroke-linecap:butt;stroke-linejoin:round;stroke:rgb(14.898682%,14.898682%,14.898682%);stroke-opacity:0.14902;stroke-miterlimit:10;" d="M 507 335.890625 L 73 335.890625 " transform="matrix(0.75,0,0,0.75,0,0)"/>
<path style="fill:none;stroke-width:0.666667;stroke-linecap:butt;stroke-linejoin:round;stroke:rgb(14.898682%,14.898682%,14.898682%);stroke-opacity:0.14902;stroke-miterlimit:10;" d="M 507 297.776042 L 73 297.776042 " transform="matrix(0.75,0,0,0.75,0,0)"/>
<path style="fill:none;stroke-width:0.666667;stroke-linecap:butt;stroke-linejoin:round;stroke:rgb(14.898682%,14.898682%,14.898682%);stroke-opacity:0.14902;stroke-miterlimit:10;" d="M 507 259.666667 L 73 259.666667 " transform="matrix(0.75,0,0,0.75,0,0)"/>
<path style="fill:none;stroke-width:0.666667;stroke-linecap:butt;stroke-linejoin:round;stroke:rgb(14.898682%,14.898682%,14.898682%);stroke-opacity:0.14902;stroke-miterlimit:10;" d="M 507 221.557292 L 73 221.557292 " transform="matrix(0.75,0,0,0.75,0,0)"/>
<path style="fill:none;stroke-width:0.666667;stroke-linecap:butt;stroke-linejoin:round;stroke:rgb(14.898682%,14.898682%,14.898682%);stroke-opacity:0.14902;stroke-miterlimit:10;" d="M 507 183.442708 L 73 183.442708 " transform="matrix(0.75,0,0,0.75,0,0)"/>
<path style="fill:none;stroke-width:0.666667;stroke-linecap:butt;stroke-linejoin:round;stroke:rgb(14.898682%,14.898682%,14.898682%);stroke-opacity:0.14902;stroke-miterlimit:10;" d="M 507 145.333333 L 73 145.333333 " transform="matrix(0.75,0,0,0.75,0,0)"/>
<path style="fill:none;stroke-width:0.666667;stroke-linecap:butt;stroke-linejoin:round;stroke:rgb(14.898682%,14.898682%,14.898682%);stroke-opacity:0.14902;stroke-miterlimit:10;" d="M 507 107.223958 L 73 107.223958 " transform="matrix(0.75,0,0,0.75,0,0)"/>
<path style="fill:none;stroke-width:0.666667;stroke-linecap:butt;stroke-linejoin:round;stroke:rgb(14.898682%,14.898682%,14.898682%);stroke-opacity:0.14902;stroke-miterlimit:10;" d="M 507 69.109375 L 73 69.109375 " transform="matrix(0.75,0,0,0.75,0,0)"/>
<path style="fill:none;stroke-width:0.666667;stroke-linecap:butt;stroke-linejoin:round;stroke:rgb(14.898682%,14.898682%,14.898682%);stroke-opacity:0.14902;stroke-miterlimit:10;" d="M 507 31 L 73 31 " transform="matrix(0.75,0,0,0.75,0,0)"/>
<path style=" stroke:none;fill-rule:nonzero;fill:rgb(0%,0%,0%);fill-opacity:0.6;" d="M 99.136719 280.5 L 99.136719 37.542969 L 69.546875 37.542969 L 69.546875 280.5 Z M 128.726562 280.5 L 128.726562 51.832031 L 99.136719 51.832031 L 99.136719 280.5 Z M 158.316406 280.5 L 158.316406 166.167969 L 128.726562 166.167969 L 128.726562 280.5 Z M 187.910156 280.5 L 187.910156 251.917969 L 158.316406 251.917969 L 158.316406 280.5 Z M 217.5 280.5 L 217.5 237.625 L 187.910156 237.625 L 187.910156 280.5 Z M 247.089844 266.207031 L 217.5 266.207031 L 217.5 280.5 L 276.683594 280.5 L 276.683594 266.207031 Z M 365.453125 280.5 L 365.453125 266.207031 L 335.863281 266.207031 L 335.863281 280.5 Z M 365.453125 280.5 "/>
<path style="fill:none;stroke-width:0.666667;stroke-linecap:square;stroke-linejoin:miter;stroke:rgb(0%,0%,0%);stroke-opacity:1;stroke-miterlimit:10;" d="M 92.729167 374 L 92.729167 50.057292 L 132.182292 50.057292 L 132.182292 374 " transform="matrix(0.75,0,0,0.75,0,0)"/>
<path style="fill:none;stroke-width:0.666667;stroke-linecap:square;stroke-linejoin:miter;stroke:rgb(0%,0%,0%);stroke-opacity:1;stroke-miterlimit:10;" d="M 132.182292 69.109375 L 171.635417 69.109375 L 171.635417 374 " transform="matrix(0.75,0,0,0.75,0,0)"/>
<path style="fill:none;stroke-width:0.666667;stroke-linecap:square;stroke-linejoin:miter;stroke:rgb(0%,0%,0%);stroke-opacity:1;stroke-miterlimit:10;" d="M 171.635417 221.557292 L 211.088542 221.557292 L 211.088542 374 " transform="matrix(0.75,0,0,0.75,0,0)"/>
<path style="fill:none;stroke-width:0.666667;stroke-linecap:square;stroke-linejoin:miter;stroke:rgb(0%,0%,0%);stroke-opacity:1;stroke-miterlimit:10;" d="M 211.088542 335.890625 L 250.546875 335.890625 " transform="matrix(0.75,0,0,0.75,0,0)"/>
<path style="fill:none;stroke-width:0.666667;stroke-linecap:square;stroke-linejoin:miter;stroke:rgb(0%,0%,0%);stroke-opacity:1;stroke-miterlimit:10;" d="M 250.546875 374 L 250.546875 316.833333 L 290 316.833333 L 290 374 " transform="matrix(0.75,0,0,0.75,0,0)"/>
<path style="fill:none;stroke-width:0.666667;stroke-linecap:square;stroke-linejoin:miter;stroke:rgb(0%,0%,0%);stroke-opacity:1;stroke-miterlimit:10;" d="M 290 354.942708 L 329.453125 354.942708 L 329.453125 374 " transform="matrix(0.75,0,0,0.75,0,0)"/>
<path style="fill:none;stroke-width:0.666667;stroke-linecap:square;stroke-linejoin:miter;stroke:rgb(0%,0%,0%);stroke-opacity:1;stroke-miterlimit:10;" d="M 329.453125 354.942708 L 368.911458 354.942708 L 368.911458 374 " transform="matrix(0.75,0,0,0.75,0,0)"/>
<path style="fill:none;stroke-width:0.666667;stroke-linecap:square;stroke-linejoin:miter;stroke:rgb(0%,0%,0%);stroke-opacity:1;stroke-miterlimit:10;" d="M 368.911458 374 L 408.364583 374 " transform="matrix(0.75,0,0,0.75,0,0)"/>
<path style="fill:none;stroke-width:0.666667;stroke-linecap:square;stroke-linejoin:miter;stroke:rgb(0%,0%,0%);stroke-opacity:1;stroke-miterlimit:10;" d="M 408.364583 374 L 447.817708 374 " transform="matrix(0.75,0,0,0.75,0,0)"/>
<path style="fill:none;stroke-width:0.666667;stroke-linecap:square;stroke-linejoin:miter;stroke:rgb(0%,0%,0%);stroke-opacity:1;stroke-miterlimit:10;" d="M 447.817708 374 L 447.817708 354.942708 L 487.270833 354.942708 L 487.270833 374 " transform="matrix(0.75,0,0,0.75,0,0)"/>
<path style="fill:none;stroke-width:0.666667;stroke-linecap:square;stroke-linejoin:round;stroke:rgb(14.898682%,14.898682%,14.898682%);stroke-opacity:1;stroke-miterlimit:10;" d="M 73 374 L 507 374 " transform="matrix(0.75,0,0,0.75,0,0)"/>
<path style="fill:none;stroke-width:0.666667;stroke-linecap:square;stroke-linejoin:round;stroke:rgb(14.898682%,14.898682%,14.898682%);stroke-opacity:1;stroke-miterlimit:10;" d="M 73 31 L 507 31 " transform="matrix(0.75,0,0,0.75,0,0)"/>
<path style="fill:none;stroke-width:0.666667;stroke-linecap:square;stroke-linejoin:round;stroke:rgb(14.898682%,14.898682%,14.898682%);stroke-opacity:1;stroke-miterlimit:10;" d="M 92.729167 374 L 92.729167 369.661458 " transform="matrix(0.75,0,0,0.75,0,0)"/>
<path style="fill:none;stroke-width:0.666667;stroke-linecap:square;stroke-linejoin:round;stroke:rgb(14.898682%,14.898682%,14.898682%);stroke-opacity:1;stroke-miterlimit:10;" d="M 171.635417 374 L 171.635417 369.661458 " transform="matrix(0.75,0,0,0.75,0,0)"/>
<path style="fill:none;stroke-width:0.666667;stroke-linecap:square;stroke-linejoin:round;stroke:rgb(14.898682%,14.898682%,14.898682%);stroke-opacity:1;stroke-miterlimit:10;" d="M 250.546875 374 L 250.546875 369.661458 " transform="matrix(0.75,0,0,0.75,0,0)"/>
<path style="fill:none;stroke-width:0.666667;stroke-linecap:square;stroke-linejoin:round;stroke:rgb(14.898682%,14.898682%,14.898682%);stroke-opacity:1;stroke-miterlimit:10;" d="M 329.453125 374 L 329.453125 369.661458 " transform="matrix(0.75,0,0,0.75,0,0)"/>
<path style="fill:none;stroke-width:0.666667;stroke-linecap:square;stroke-linejoin:round;stroke:rgb(14.898682%,14.898682%,14.898682%);stroke-opacity:1;stroke-miterlimit:10;" d="M 408.364583 374 L 408.364583 369.661458 " transform="matrix(0.75,0,0,0.75,0,0)"/>
<path style="fill:none;stroke-width:0.666667;stroke-linecap:square;stroke-linejoin:round;stroke:rgb(14.898682%,14.898682%,14.898682%);stroke-opacity:1;stroke-miterlimit:10;" d="M 487.270833 374 L 487.270833 369.661458 " transform="matrix(0.75,0,0,0.75,0,0)"/>
<path style="fill:none;stroke-width:0.666667;stroke-linecap:square;stroke-linejoin:round;stroke:rgb(14.898682%,14.898682%,14.898682%);stroke-opacity:1;stroke-miterlimit:10;" d="M 92.729167 31 L 92.729167 35.338542 " transform="matrix(0.75,0,0,0.75,0,0)"/>
<path style="fill:none;stroke-width:0.666667;stroke-linecap:square;stroke-linejoin:round;stroke:rgb(14.898682%,14.898682%,14.898682%);stroke-opacity:1;stroke-miterlimit:10;" d="M 171.635417 31 L 171.635417 35.338542 " transform="matrix(0.75,0,0,0.75,0,0)"/>
<path style="fill:none;stroke-width:0.666667;stroke-linecap:square;stroke-linejoin:round;stroke:rgb(14.898682%,14.898682%,14.898682%);stroke-opacity:1;stroke-miterlimit:10;" d="M 250.546875 31 L 250.546875 35.338542 " transform="matrix(0.75,0,0,0.75,0,0)"/>
<path style="fill:none;stroke-width:0.666667;stroke-linecap:square;stroke-linejoin:round;stroke:rgb(14.898682%,14.898682%,14.898682%);stroke-opacity:1;stroke-miterlimit:10;" d="M 329.453125 31 L 329.453125 35.338542 " transform="matrix(0.75,0,0,0.75,0,0)"/>
<path style="fill:none;stroke-width:0.666667;stroke-linecap:square;stroke-linejoin:round;stroke:rgb(14.898682%,14.898682%,14.898682%);stroke-opacity:1;stroke-miterlimit:10;" d="M 408.364583 31 L 408.364583 35.338542 " transform="matrix(0.75,0,0,0.75,0,0)"/>
<path style="fill:none;stroke-width:0.666667;stroke-linecap:square;stroke-linejoin:round;stroke:rgb(14.898682%,14.898682%,14.898682%);stroke-opacity:1;stroke-miterlimit:10;" d="M 487.270833 31 L 487.270833 35.338542 " transform="matrix(0.75,0,0,0.75,0,0)"/>
<path style=" stroke:none;fill-rule:nonzero;fill:rgb(14.898682%,14.898682%,14.898682%);fill-opacity:1;" d="M 69.609375 294.1875 C 68.6875 294.1875 68.0625 293.808594 67.734375 293.050781 C 67.40625 292.292969 67.242188 291.394531 67.242188 290.355469 C 67.242188 289.699219 67.300781 289.082031 67.417969 288.507812 C 67.535156 287.933594 67.769531 287.449219 68.121094 287.050781 C 68.472656 286.652344 68.96875 286.453125 69.609375 286.453125 C 70.101562 286.453125 70.503906 286.570312 70.820312 286.808594 C 71.136719 287.046875 71.378906 287.359375 71.542969 287.742188 C 71.707031 288.125 71.820312 288.535156 71.882812 288.972656 C 71.945312 289.410156 71.976562 289.871094 71.976562 290.355469 C 71.976562 290.996094 71.914062 291.597656 71.792969 292.160156 C 71.671875 292.722656 71.4375 293.199219 71.089844 293.59375 C 70.742188 293.988281 70.25 294.1875 69.609375 294.1875 Z M 69.609375 293.894531 C 70.023438 293.894531 70.332031 293.679688 70.539062 293.253906 C 70.746094 292.828125 70.875 292.355469 70.921875 291.832031 C 70.96875 291.308594 70.992188 290.753906 70.992188 290.167969 C 70.992188 289.605469 70.96875 289.085938 70.921875 288.609375 C 70.875 288.132812 70.75 287.699219 70.546875 287.3125 C 70.34375 286.925781 70.03125 286.734375 69.609375 286.734375 C 69.1875 286.734375 68.871094 286.929688 68.664062 287.320312 C 68.457031 287.710938 68.332031 288.140625 68.285156 288.613281 C 68.238281 289.085938 68.214844 289.605469 68.214844 290.167969 C 68.214844 290.589844 68.222656 290.984375 68.242188 291.355469 C 68.261719 291.726562 68.316406 292.109375 68.40625 292.5 C 68.496094 292.890625 68.640625 293.21875 68.835938 293.488281 C 69.03125 293.757812 69.289062 293.894531 69.609375 293.894531 Z M 69.609375 293.894531 "/>
<path style=" stroke:none;fill-rule:nonzero;fill:rgb(14.898682%,14.898682%,14.898682%);fill-opacity:1;" d="M 126.539062 293.941406 L 126.539062 293.636719 C 126.539062 293.621094 126.546875 293.601562 126.5625 293.578125 L 128.308594 291.644531 C 128.574219 291.355469 128.789062 291.113281 128.953125 290.921875 C 129.117188 290.730469 129.28125 290.507812 129.441406 290.253906 C 129.601562 290 129.726562 289.742188 129.820312 289.480469 C 129.914062 289.21875 129.960938 288.945312 129.960938 288.65625 C 129.960938 288.34375 129.90625 288.046875 129.792969 287.765625 C 129.679688 287.484375 129.507812 287.257812 129.28125 287.089844 C 129.054688 286.921875 128.78125 286.839844 128.460938 286.839844 C 128.140625 286.839844 127.851562 286.9375 127.589844 287.136719 C 127.328125 287.335938 127.140625 287.589844 127.03125 287.894531 C 127.0625 287.886719 127.105469 287.882812 127.160156 287.882812 C 127.324219 287.882812 127.46875 287.9375 127.589844 288.050781 C 127.710938 288.164062 127.769531 288.3125 127.769531 288.492188 C 127.769531 288.664062 127.710938 288.808594 127.589844 288.929688 C 127.46875 289.050781 127.324219 289.113281 127.160156 289.113281 C 126.980469 289.113281 126.832031 289.050781 126.714844 288.929688 C 126.597656 288.808594 126.539062 288.664062 126.539062 288.492188 C 126.539062 288.210938 126.59375 287.945312 126.699219 287.699219 C 126.804688 287.453125 126.957031 287.234375 127.15625 287.042969 C 127.355469 286.851562 127.578125 286.707031 127.828125 286.605469 C 128.078125 286.503906 128.34375 286.453125 128.625 286.453125 C 129.054688 286.453125 129.457031 286.542969 129.828125 286.722656 C 130.199219 286.902344 130.492188 287.15625 130.707031 287.488281 C 130.921875 287.820312 131.027344 288.210938 131.027344 288.65625 C 131.027344 288.976562 130.957031 289.28125 130.816406 289.574219 C 130.675781 289.867188 130.496094 290.136719 130.273438 290.378906 C 130.050781 290.621094 129.761719 290.894531 129.410156 291.199219 C 129.058594 291.503906 128.828125 291.707031 128.71875 291.808594 L 127.453125 293.027344 L 128.53125 293.027344 C 129.0625 293.027344 129.507812 293.023438 129.863281 293.015625 C 130.21875 293.007812 130.40625 292.992188 130.429688 292.96875 C 130.515625 292.875 130.605469 292.53125 130.699219 291.9375 L 131.027344 291.9375 L 130.710938 293.941406 Z M 126.539062 293.941406 "/>
<path style=" stroke:none;fill-rule:nonzero;fill:rgb(14.898682%,14.898682%,14.898682%);fill-opacity:1;" d="M 185.476562 292.089844 L 185.476562 291.691406 L 188.945312 286.5 C 188.976562 286.46875 189.015625 286.453125 189.0625 286.453125 L 189.226562 286.453125 C 189.3125 286.453125 189.355469 286.492188 189.355469 286.570312 L 189.355469 291.691406 L 190.457031 291.691406 L 190.457031 292.089844 L 189.355469 292.089844 L 189.355469 293.191406 C 189.355469 293.339844 189.464844 293.433594 189.683594 293.476562 C 189.902344 293.519531 190.15625 293.542969 190.445312 293.542969 L 190.445312 293.941406 L 187.351562 293.941406 L 187.351562 293.542969 C 187.640625 293.542969 187.894531 293.519531 188.113281 293.476562 C 188.332031 293.433594 188.441406 293.339844 188.441406 293.191406 L 188.441406 292.089844 Z M 185.851562 291.691406 L 188.511719 291.691406 L 188.511719 287.707031 Z M 185.851562 291.691406 "/>
<path style=" stroke:none;fill-rule:nonzero;fill:rgb(14.898682%,14.898682%,14.898682%);fill-opacity:1;" d="M 247.152344 294.1875 C 246.683594 294.1875 246.296875 294.0625 245.988281 293.816406 C 245.679688 293.570312 245.4375 293.25 245.265625 292.855469 C 245.09375 292.460938 244.976562 292.046875 244.910156 291.613281 C 244.84375 291.179688 244.808594 290.746094 244.808594 290.308594 C 244.808594 289.714844 244.925781 289.117188 245.15625 288.519531 C 245.386719 287.921875 245.726562 287.429688 246.175781 287.039062 C 246.625 286.648438 247.15625 286.453125 247.773438 286.453125 C 248.03125 286.453125 248.273438 286.5 248.496094 286.59375 C 248.71875 286.6875 248.890625 286.828125 249.015625 287.019531 C 249.140625 287.210938 249.203125 287.441406 249.203125 287.707031 C 249.203125 287.863281 249.152344 287.992188 249.046875 288.09375 C 248.941406 288.195312 248.808594 288.246094 248.652344 288.246094 C 248.511719 288.246094 248.390625 288.191406 248.285156 288.085938 C 248.179688 287.980469 248.125 287.855469 248.125 287.707031 C 248.125 287.558594 248.179688 287.429688 248.285156 287.324219 C 248.390625 287.21875 248.511719 287.167969 248.652344 287.167969 L 248.722656 287.167969 C 248.621094 287.035156 248.484375 286.933594 248.3125 286.867188 C 248.140625 286.800781 247.960938 286.769531 247.773438 286.769531 C 247.546875 286.769531 247.339844 286.820312 247.148438 286.921875 C 246.957031 287.023438 246.78125 287.15625 246.625 287.324219 C 246.46875 287.492188 246.339844 287.679688 246.238281 287.882812 C 246.136719 288.085938 246.058594 288.316406 246.003906 288.574219 C 245.949219 288.832031 245.914062 289.074219 245.898438 289.300781 C 245.882812 289.527344 245.875 289.8125 245.875 290.15625 C 246.007812 289.851562 246.195312 289.601562 246.4375 289.40625 C 246.679688 289.210938 246.949219 289.113281 247.246094 289.113281 C 247.582031 289.113281 247.886719 289.179688 248.160156 289.316406 C 248.433594 289.453125 248.671875 289.640625 248.871094 289.878906 C 249.070312 290.117188 249.222656 290.390625 249.328125 290.699219 C 249.433594 291.007812 249.484375 291.320312 249.484375 291.632812 C 249.484375 292.070312 249.386719 292.488281 249.191406 292.886719 C 248.996094 293.285156 248.722656 293.601562 248.367188 293.835938 C 248.011719 294.070312 247.605469 294.1875 247.152344 294.1875 Z M 247.152344 293.835938 C 247.441406 293.835938 247.675781 293.769531 247.851562 293.636719 C 248.027344 293.503906 248.15625 293.328125 248.238281 293.109375 C 248.320312 292.890625 248.371094 292.667969 248.390625 292.445312 C 248.410156 292.222656 248.417969 291.953125 248.417969 291.632812 C 248.417969 291.210938 248.398438 290.847656 248.359375 290.546875 C 248.320312 290.246094 248.210938 289.980469 248.03125 289.75 C 247.851562 289.519531 247.578125 289.40625 247.210938 289.40625 C 246.90625 289.40625 246.65625 289.507812 246.460938 289.714844 C 246.265625 289.921875 246.125 290.183594 246.035156 290.496094 C 245.945312 290.808594 245.898438 291.109375 245.898438 291.398438 C 245.898438 291.5 245.902344 291.574219 245.910156 291.621094 C 245.910156 291.636719 245.910156 291.644531 245.90625 291.648438 C 245.902344 291.652344 245.898438 291.664062 245.898438 291.679688 C 245.898438 292 245.933594 292.324219 246 292.652344 C 246.066406 292.980469 246.191406 293.257812 246.375 293.488281 C 246.558594 293.71875 246.816406 293.835938 247.152344 293.835938 Z M 247.152344 293.835938 "/>
<path style=" stroke:none;fill-rule:nonzero;fill:rgb(14.898682%,14.898682%,14.898682%);fill-opacity:1;" d="M 303.992188 292.230469 C 303.992188 291.785156 304.140625 291.386719 304.4375 291.039062 C 304.734375 290.691406 305.117188 290.402344 305.585938 290.167969 L 305.164062 289.898438 C 304.90625 289.734375 304.695312 289.511719 304.535156 289.230469 C 304.375 288.949219 304.296875 288.65625 304.296875 288.351562 C 304.296875 287.992188 304.390625 287.667969 304.578125 287.378906 C 304.765625 287.089844 305.015625 286.863281 305.332031 286.699219 C 305.648438 286.535156 305.984375 286.453125 306.335938 286.453125 C 306.671875 286.453125 306.992188 286.519531 307.300781 286.652344 C 307.609375 286.785156 307.863281 286.976562 308.0625 287.230469 C 308.261719 287.484375 308.363281 287.789062 308.363281 288.140625 C 308.363281 288.390625 308.304688 288.621094 308.1875 288.835938 C 308.070312 289.050781 307.90625 289.246094 307.699219 289.417969 C 307.492188 289.589844 307.273438 289.738281 307.039062 289.863281 L 307.671875 290.273438 C 307.96875 290.46875 308.207031 290.722656 308.390625 291.035156 C 308.574219 291.347656 308.667969 291.679688 308.667969 292.03125 C 308.667969 292.4375 308.558594 292.804688 308.339844 293.136719 C 308.121094 293.46875 307.832031 293.726562 307.472656 293.910156 C 307.113281 294.09375 306.734375 294.1875 306.335938 294.1875 C 305.945312 294.1875 305.570312 294.109375 305.210938 293.953125 C 304.851562 293.796875 304.558594 293.566406 304.332031 293.265625 C 304.105469 292.964844 303.992188 292.621094 303.992188 292.230469 Z M 304.601562 292.230469 C 304.601562 292.527344 304.683594 292.796875 304.847656 293.042969 C 305.011719 293.289062 305.226562 293.484375 305.496094 293.625 C 305.765625 293.765625 306.046875 293.835938 306.335938 293.835938 C 306.773438 293.835938 307.167969 293.707031 307.523438 293.449219 C 307.878906 293.191406 308.058594 292.855469 308.058594 292.441406 C 308.058594 292.292969 308.027344 292.148438 307.96875 292.007812 C 307.910156 291.867188 307.832031 291.738281 307.730469 291.625 C 307.628906 291.511719 307.515625 291.417969 307.390625 291.339844 L 305.890625 290.367188 C 305.65625 290.492188 305.4375 290.648438 305.238281 290.839844 C 305.039062 291.03125 304.882812 291.246094 304.769531 291.480469 C 304.65625 291.714844 304.601562 291.964844 304.601562 292.230469 Z M 305.375 288.796875 L 306.746094 289.675781 C 307.058594 289.496094 307.316406 289.273438 307.519531 289.011719 C 307.722656 288.75 307.824219 288.460938 307.824219 288.140625 C 307.824219 287.882812 307.75 287.648438 307.605469 287.4375 C 307.460938 287.226562 307.277344 287.0625 307.050781 286.945312 C 306.824219 286.828125 306.582031 286.769531 306.324219 286.769531 C 306.097656 286.769531 305.867188 286.8125 305.636719 286.902344 C 305.40625 286.992188 305.21875 287.125 305.070312 287.296875 C 304.921875 287.46875 304.847656 287.671875 304.847656 287.90625 C 304.847656 288.257812 305.023438 288.554688 305.375 288.796875 Z M 305.375 288.796875 "/>
<path style=" stroke:none;fill-rule:nonzero;fill:rgb(14.898682%,14.898682%,14.898682%);fill-opacity:1;" d="M 360.996094 293.941406 L 360.996094 293.542969 C 361.933594 293.542969 362.402344 293.425781 362.402344 293.191406 L 362.402344 287.285156 C 362.011719 287.472656 361.519531 287.566406 360.925781 287.566406 L 360.925781 287.167969 C 361.847656 287.167969 362.542969 286.929688 363.011719 286.453125 L 363.175781 286.453125 C 363.199219 286.453125 363.222656 286.460938 363.246094 286.480469 C 363.269531 286.5 363.28125 286.523438 363.28125 286.546875 L 363.28125 293.191406 C 363.28125 293.425781 363.75 293.542969 364.6875 293.542969 L 364.6875 293.941406 Z M 360.996094 293.941406 "/>
<path style=" stroke:none;fill-rule:nonzero;fill:rgb(14.898682%,14.898682%,14.898682%);fill-opacity:1;" d="M 368.265625 294.1875 C 367.34375 294.1875 366.71875 293.808594 366.390625 293.050781 C 366.0625 292.292969 365.898438 291.394531 365.898438 290.355469 C 365.898438 289.699219 365.957031 289.082031 366.074219 288.507812 C 366.191406 287.933594 366.425781 287.449219 366.777344 287.050781 C 367.128906 286.652344 367.625 286.453125 368.265625 286.453125 C 368.757812 286.453125 369.164062 286.570312 369.480469 286.808594 C 369.796875 287.046875 370.035156 287.359375 370.199219 287.742188 C 370.363281 288.125 370.476562 288.535156 370.539062 288.972656 C 370.601562 289.410156 370.632812 289.871094 370.632812 290.355469 C 370.632812 290.996094 370.574219 291.597656 370.453125 292.160156 C 370.332031 292.722656 370.097656 293.199219 369.75 293.59375 C 369.402344 293.988281 368.90625 294.1875 368.265625 294.1875 Z M 368.265625 293.894531 C 368.679688 293.894531 368.992188 293.679688 369.199219 293.253906 C 369.40625 292.828125 369.53125 292.355469 369.578125 291.832031 C 369.625 291.308594 369.648438 290.753906 369.648438 290.167969 C 369.648438 289.605469 369.625 289.085938 369.578125 288.609375 C 369.53125 288.132812 369.40625 287.699219 369.203125 287.3125 C 369 286.925781 368.6875 286.734375 368.265625 286.734375 C 367.84375 286.734375 367.53125 286.929688 367.324219 287.320312 C 367.117188 287.710938 366.988281 288.140625 366.941406 288.613281 C 366.894531 289.085938 366.871094 289.605469 366.871094 290.167969 C 366.871094 290.589844 366.882812 290.984375 366.902344 291.355469 C 366.921875 291.726562 366.976562 292.109375 367.066406 292.5 C 367.15625 292.890625 367.296875 293.21875 367.492188 293.488281 C 367.6875 293.757812 367.945312 293.894531 368.265625 293.894531 Z M 368.265625 293.894531 "/>
<path style=" stroke:none;fill-rule:nonzero;fill:rgb(14.898682%,14.898682%,14.898682%);fill-opacity:1;" d="M 318.363281 309.0625 L 318.363281 308.640625 C 319.183594 308.640625 319.59375 308.511719 319.59375 308.253906 L 319.59375 301.667969 C 319.59375 301.410156 319.183594 301.28125 318.363281 301.28125 L 318.363281 300.859375 L 325.148438 300.859375 L 325.476562 303.613281 L 325.136719 303.613281 C 325.050781 302.917969 324.929688 302.414062 324.773438 302.101562 C 324.617188 301.789062 324.367188 301.574219 324.027344 301.457031 C 323.6875 301.339844 323.179688 301.28125 322.5 301.28125 L 321.328125 301.28125 C 321.179688 301.28125 321.066406 301.289062 320.988281 301.300781 C 320.910156 301.3125 320.84375 301.347656 320.792969 301.40625 C 320.742188 301.464844 320.71875 301.550781 320.71875 301.667969 L 320.71875 304.597656 L 321.597656 304.597656 C 322.003906 304.597656 322.308594 304.5625 322.511719 304.492188 C 322.714844 304.421875 322.851562 304.292969 322.925781 304.101562 C 323 303.910156 323.039062 303.605469 323.039062 303.191406 L 323.390625 303.191406 L 323.390625 306.414062 L 323.039062 306.414062 C 323.039062 306.007812 323 305.707031 322.925781 305.511719 C 322.851562 305.316406 322.714844 305.1875 322.511719 305.121094 C 322.308594 305.054688 322.003906 305.019531 321.597656 305.019531 L 320.71875 305.019531 L 320.71875 308.253906 C 320.71875 308.425781 320.765625 308.535156 320.863281 308.578125 C 320.960938 308.621094 321.117188 308.640625 321.328125 308.640625 L 322.59375 308.640625 C 323.148438 308.640625 323.597656 308.597656 323.941406 308.507812 C 324.285156 308.417969 324.550781 308.269531 324.738281 308.066406 C 324.925781 307.863281 325.070312 307.597656 325.175781 307.269531 C 325.28125 306.941406 325.378906 306.488281 325.464844 305.910156 L 325.816406 305.910156 L 325.3125 309.0625 Z M 318.363281 309.0625 "/>
<path style=" stroke:none;fill-rule:nonzero;fill:rgb(14.898682%,14.898682%,14.898682%);fill-opacity:1;" d="M 326.539062 309.0625 L 326.539062 308.640625 C 326.8125 308.640625 327.035156 308.621094 327.210938 308.578125 C 327.386719 308.535156 327.476562 308.425781 327.476562 308.253906 L 327.476562 304.984375 C 327.476562 304.765625 327.441406 304.609375 327.375 304.515625 C 327.308594 304.421875 327.214844 304.363281 327.09375 304.339844 C 326.972656 304.316406 326.789062 304.304688 326.539062 304.304688 L 326.539062 303.882812 L 328.25 303.753906 L 328.25 304.925781 C 328.382812 304.582031 328.566406 304.300781 328.804688 304.082031 C 329.042969 303.863281 329.332031 303.753906 329.667969 303.753906 C 329.910156 303.753906 330.125 303.824219 330.3125 303.964844 C 330.5 304.105469 330.59375 304.292969 330.59375 304.527344 C 330.59375 304.667969 330.539062 304.792969 330.433594 304.902344 C 330.328125 305.011719 330.203125 305.066406 330.054688 305.066406 C 329.90625 305.066406 329.777344 305.015625 329.671875 304.910156 C 329.566406 304.804688 329.515625 304.675781 329.515625 304.527344 C 329.515625 304.308594 329.589844 304.15625 329.738281 304.070312 L 329.667969 304.070312 C 329.347656 304.070312 329.082031 304.1875 328.875 304.421875 C 328.667969 304.65625 328.523438 304.949219 328.4375 305.296875 C 328.351562 305.644531 328.308594 305.972656 328.308594 306.285156 L 328.308594 308.253906 C 328.308594 308.511719 328.699219 308.640625 329.480469 308.640625 L 329.480469 309.0625 Z M 326.539062 309.0625 "/>
<path style=" stroke:none;fill-rule:nonzero;fill:rgb(14.898682%,14.898682%,14.898682%);fill-opacity:1;" d="M 331.277344 309.0625 L 331.277344 308.640625 C 331.550781 308.640625 331.777344 308.621094 331.953125 308.578125 C 332.128906 308.535156 332.214844 308.425781 332.214844 308.253906 L 332.214844 304.984375 C 332.214844 304.765625 332.183594 304.609375 332.117188 304.515625 C 332.050781 304.421875 331.957031 304.363281 331.835938 304.339844 C 331.714844 304.316406 331.527344 304.304688 331.277344 304.304688 L 331.277344 303.882812 L 332.988281 303.753906 L 332.988281 304.925781 C 333.121094 304.582031 333.308594 304.300781 333.546875 304.082031 C 333.785156 303.863281 334.070312 303.753906 334.40625 303.753906 C 334.648438 303.753906 334.863281 303.824219 335.050781 303.964844 C 335.238281 304.105469 335.332031 304.292969 335.332031 304.527344 C 335.332031 304.667969 335.28125 304.792969 335.175781 304.902344 C 335.070312 305.011719 334.941406 305.066406 334.792969 305.066406 C 334.644531 305.066406 334.519531 305.015625 334.414062 304.910156 C 334.308594 304.804688 334.253906 304.675781 334.253906 304.527344 C 334.253906 304.308594 334.328125 304.15625 334.476562 304.070312 L 334.40625 304.070312 C 334.085938 304.070312 333.824219 304.1875 333.617188 304.421875 C 333.410156 304.65625 333.261719 304.949219 333.175781 305.296875 C 333.089844 305.644531 333.046875 305.972656 333.046875 306.285156 L 333.046875 308.253906 C 333.046875 308.511719 333.4375 308.640625 334.21875 308.640625 L 334.21875 309.0625 Z M 331.277344 309.0625 "/>
<path style=" stroke:none;fill-rule:nonzero;fill:rgb(14.898682%,14.898682%,14.898682%);fill-opacity:1;" d="M 338.699219 309.203125 C 338.222656 309.203125 337.78125 309.082031 337.371094 308.835938 C 336.960938 308.589844 336.636719 308.261719 336.398438 307.851562 C 336.160156 307.441406 336.039062 306.992188 336.039062 306.507812 C 336.039062 306.140625 336.105469 305.789062 336.234375 305.449219 C 336.363281 305.109375 336.550781 304.804688 336.796875 304.535156 C 337.042969 304.265625 337.328125 304.054688 337.652344 303.90625 C 337.976562 303.757812 338.324219 303.683594 338.699219 303.683594 C 339.191406 303.683594 339.640625 303.8125 340.046875 304.070312 C 340.453125 304.328125 340.773438 304.675781 341.007812 305.113281 C 341.242188 305.550781 341.359375 306.015625 341.359375 306.507812 C 341.359375 306.984375 341.242188 307.429688 341.003906 307.84375 C 340.765625 308.257812 340.441406 308.589844 340.03125 308.835938 C 339.621094 309.082031 339.175781 309.203125 338.699219 309.203125 Z M 338.699219 308.839844 C 339.339844 308.839844 339.769531 308.609375 339.984375 308.144531 C 340.199219 307.679688 340.304688 307.085938 340.304688 306.367188 C 340.304688 305.96875 340.285156 305.636719 340.242188 305.371094 C 340.199219 305.105469 340.105469 304.867188 339.964844 304.65625 C 339.871094 304.523438 339.757812 304.40625 339.621094 304.304688 C 339.484375 304.203125 339.335938 304.128906 339.179688 304.078125 C 339.023438 304.027344 338.863281 304 338.699219 304 C 338.449219 304 338.214844 304.058594 337.992188 304.171875 C 337.769531 304.285156 337.582031 304.445312 337.433594 304.65625 C 337.285156 304.882812 337.191406 305.132812 337.148438 305.402344 C 337.105469 305.671875 337.082031 305.992188 337.082031 306.367188 C 337.082031 306.820312 337.121094 307.226562 337.199219 307.582031 C 337.277344 307.9375 337.4375 308.234375 337.675781 308.476562 C 337.914062 308.71875 338.253906 308.839844 338.699219 308.839844 Z M 338.699219 308.839844 "/>
<path style=" stroke:none;fill-rule:nonzero;fill:rgb(14.898682%,14.898682%,14.898682%);fill-opacity:1;" d="M 342.066406 309.0625 L 342.066406 308.640625 C 342.339844 308.640625 342.566406 308.621094 342.742188 308.578125 C 342.917969 308.535156 343.003906 308.425781 343.003906 308.253906 L 343.003906 304.984375 C 343.003906 304.765625 342.972656 304.609375 342.90625 304.515625 C 342.839844 304.421875 342.746094 304.363281 342.625 304.339844 C 342.503906 304.316406 342.316406 304.304688 342.066406 304.304688 L 342.066406 303.882812 L 343.777344 303.753906 L 343.777344 304.925781 C 343.910156 304.582031 344.097656 304.300781 344.335938 304.082031 C 344.574219 303.863281 344.859375 303.753906 345.195312 303.753906 C 345.4375 303.753906 345.652344 303.824219 345.839844 303.964844 C 346.027344 304.105469 346.121094 304.292969 346.121094 304.527344 C 346.121094 304.667969 346.070312 304.792969 345.964844 304.902344 C 345.859375 305.011719 345.730469 305.066406 345.582031 305.066406 C 345.433594 305.066406 345.308594 305.015625 345.203125 304.910156 C 345.097656 304.804688 345.042969 304.675781 345.042969 304.527344 C 345.042969 304.308594 345.117188 304.15625 345.265625 304.070312 L 345.195312 304.070312 C 344.875 304.070312 344.613281 304.1875 344.40625 304.421875 C 344.199219 304.65625 344.050781 304.949219 343.964844 305.296875 C 343.878906 305.644531 343.835938 305.972656 343.835938 306.285156 L 343.835938 308.253906 C 343.835938 308.511719 344.226562 308.640625 345.007812 308.640625 L 345.007812 309.0625 Z M 342.066406 309.0625 "/>
<path style=" stroke:none;fill-rule:nonzero;fill:rgb(14.898682%,14.898682%,14.898682%);fill-opacity:1;" d="M 351.941406 312.0625 L 351.941406 300.0625 L 353.582031 300.0625 L 353.582031 300.542969 L 352.421875 300.542969 L 352.421875 311.582031 L 353.582031 311.582031 L 353.582031 312.0625 Z M 351.941406 312.0625 "/>
<path style=" stroke:none;fill-rule:nonzero;fill:rgb(14.898682%,14.898682%,14.898682%);fill-opacity:1;" d="M 354.246094 309.0625 L 354.246094 308.640625 C 354.519531 308.640625 354.746094 308.621094 354.921875 308.578125 C 355.097656 308.535156 355.183594 308.425781 355.183594 308.253906 L 355.183594 304.984375 C 355.183594 304.765625 355.152344 304.609375 355.085938 304.515625 C 355.019531 304.421875 354.925781 304.363281 354.804688 304.339844 C 354.683594 304.316406 354.496094 304.304688 354.246094 304.304688 L 354.246094 303.882812 L 355.980469 303.753906 L 355.980469 304.925781 C 356.144531 304.582031 356.382812 304.300781 356.695312 304.082031 C 357.007812 303.863281 357.351562 303.753906 357.726562 303.753906 C 358.648438 303.753906 359.1875 304.128906 359.34375 304.878906 C 359.507812 304.542969 359.746094 304.273438 360.054688 304.066406 C 360.363281 303.859375 360.699219 303.753906 361.066406 303.753906 C 361.425781 303.753906 361.730469 303.8125 361.980469 303.929688 C 362.230469 304.046875 362.417969 304.226562 362.542969 304.46875 C 362.667969 304.710938 362.730469 305.011719 362.730469 305.371094 L 362.730469 308.253906 C 362.730469 308.425781 362.820312 308.535156 362.996094 308.578125 C 363.171875 308.621094 363.394531 308.640625 363.667969 308.640625 L 363.667969 309.0625 L 360.914062 309.0625 L 360.914062 308.640625 C 361.1875 308.640625 361.414062 308.621094 361.589844 308.578125 C 361.765625 308.535156 361.851562 308.425781 361.851562 308.253906 L 361.851562 305.40625 C 361.851562 305.007812 361.796875 304.6875 361.683594 304.441406 C 361.570312 304.195312 361.335938 304.070312 360.984375 304.070312 C 360.523438 304.070312 360.144531 304.257812 359.84375 304.628906 C 359.542969 305 359.390625 305.417969 359.390625 305.886719 L 359.390625 308.253906 C 359.390625 308.425781 359.480469 308.535156 359.65625 308.578125 C 359.832031 308.621094 360.054688 308.640625 360.328125 308.640625 L 360.328125 309.0625 L 357.585938 309.0625 L 357.585938 308.640625 C 357.859375 308.640625 358.085938 308.621094 358.261719 308.578125 C 358.4375 308.535156 358.523438 308.425781 358.523438 308.253906 L 358.523438 305.40625 C 358.523438 305.015625 358.46875 304.695312 358.355469 304.445312 C 358.242188 304.195312 358.007812 304.070312 357.65625 304.070312 C 357.1875 304.070312 356.804688 304.257812 356.507812 304.628906 C 356.210938 305 356.0625 305.417969 356.0625 305.886719 L 356.0625 308.253906 C 356.0625 308.425781 356.152344 308.535156 356.328125 308.578125 C 356.503906 308.621094 356.722656 308.640625 356.988281 308.640625 L 356.988281 309.0625 Z M 354.246094 309.0625 "/>
<path style=" stroke:none;fill-rule:nonzero;fill:rgb(14.898682%,14.898682%,14.898682%);fill-opacity:1;" d="M 364.332031 309.0625 L 364.332031 308.640625 C 364.605469 308.640625 364.828125 308.621094 365.003906 308.578125 C 365.179688 308.535156 365.269531 308.425781 365.269531 308.253906 L 365.269531 304.984375 C 365.269531 304.765625 365.234375 304.609375 365.167969 304.515625 C 365.101562 304.421875 365.007812 304.363281 364.886719 304.339844 C 364.765625 304.316406 364.582031 304.304688 364.332031 304.304688 L 364.332031 303.882812 L 366.066406 303.753906 L 366.066406 304.925781 C 366.230469 304.582031 366.46875 304.300781 366.78125 304.082031 C 367.09375 303.863281 367.4375 303.753906 367.8125 303.753906 C 368.734375 303.753906 369.273438 304.128906 369.429688 304.878906 C 369.59375 304.542969 369.828125 304.273438 370.136719 304.066406 C 370.445312 303.859375 370.785156 303.753906 371.152344 303.753906 C 371.511719 303.753906 371.816406 303.8125 372.066406 303.929688 C 372.316406 304.046875 372.503906 304.226562 372.628906 304.46875 C 372.753906 304.710938 372.816406 305.011719 372.816406 305.371094 L 372.816406 308.253906 C 372.816406 308.425781 372.902344 308.535156 373.078125 308.578125 C 373.253906 308.621094 373.480469 308.640625 373.753906 308.640625 L 373.753906 309.0625 L 371 309.0625 L 371 308.640625 C 371.273438 308.640625 371.496094 308.621094 371.671875 308.578125 C 371.847656 308.535156 371.9375 308.425781 371.9375 308.253906 L 371.9375 305.40625 C 371.9375 305.007812 371.878906 304.6875 371.765625 304.441406 C 371.652344 304.195312 371.421875 304.070312 371.070312 304.070312 C 370.609375 304.070312 370.226562 304.257812 369.925781 304.628906 C 369.625 305 369.476562 305.417969 369.476562 305.886719 L 369.476562 308.253906 C 369.476562 308.425781 369.5625 308.535156 369.738281 308.578125 C 369.914062 308.621094 370.140625 308.640625 370.414062 308.640625 L 370.414062 309.0625 L 367.671875 309.0625 L 367.671875 308.640625 C 367.945312 308.640625 368.167969 308.621094 368.34375 308.578125 C 368.519531 308.535156 368.609375 308.425781 368.609375 308.253906 L 368.609375 305.40625 C 368.609375 305.015625 368.550781 304.695312 368.4375 304.445312 C 368.324219 304.195312 368.09375 304.070312 367.742188 304.070312 C 367.273438 304.070312 366.890625 304.257812 366.59375 304.628906 C 366.296875 305 366.148438 305.417969 366.148438 305.886719 L 366.148438 308.253906 C 366.148438 308.425781 366.234375 308.535156 366.410156 308.578125 C 366.585938 308.621094 366.808594 308.640625 367.074219 308.640625 L 367.074219 309.0625 Z M 364.332031 309.0625 "/>
<path style=" stroke:none;fill-rule:nonzero;fill:rgb(14.898682%,14.898682%,14.898682%);fill-opacity:1;" d="M 374.320312 312.0625 L 374.320312 311.582031 L 375.480469 311.582031 L 375.480469 300.542969 L 374.320312 300.542969 L 374.320312 300.0625 L 375.960938 300.0625 L 375.960938 312.0625 Z M 374.320312 312.0625 "/>
<path style="fill:none;stroke-width:0.666667;stroke-linecap:square;stroke-linejoin:round;stroke:rgb(14.898682%,14.898682%,14.898682%);stroke-opacity:1;stroke-miterlimit:10;" d="M 73 374 L 73 31 " transform="matrix(0.75,0,0,0.75,0,0)"/>
<path style="fill:none;stroke-width:0.666667;stroke-linecap:square;stroke-linejoin:round;stroke:rgb(14.898682%,14.898682%,14.898682%);stroke-opacity:1;stroke-miterlimit:10;" d="M 507 374 L 507 31 " transform="matrix(0.75,0,0,0.75,0,0)"/>
<path style="fill:none;stroke-width:0.666667;stroke-linecap:square;stroke-linejoin:round;stroke:rgb(14.898682%,14.898682%,14.898682%);stroke-opacity:1;stroke-miterlimit:10;" d="M 73 374 L 77.338542 374 " transform="matrix(0.75,0,0,0.75,0,0)"/>
<path style="fill:none;stroke-width:0.666667;stroke-linecap:square;stroke-linejoin:round;stroke:rgb(14.898682%,14.898682%,14.898682%);stroke-opacity:1;stroke-miterlimit:10;" d="M 73 335.890625 L 77.338542 335.890625 " transform="matrix(0.75,0,0,0.75,0,0)"/>
<path style="fill:none;stroke-width:0.666667;stroke-linecap:square;stroke-linejoin:round;stroke:rgb(14.898682%,14.898682%,14.898682%);stroke-opacity:1;stroke-miterlimit:10;" d="M 73 297.776042 L 77.338542 297.776042 " transform="matrix(0.75,0,0,0.75,0,0)"/>
<path style="fill:none;stroke-width:0.666667;stroke-linecap:square;stroke-linejoin:round;stroke:rgb(14.898682%,14.898682%,14.898682%);stroke-opacity:1;stroke-miterlimit:10;" d="M 73 259.666667 L 77.338542 259.666667 " transform="matrix(0.75,0,0,0.75,0,0)"/>
<path style="fill:none;stroke-width:0.666667;stroke-linecap:square;stroke-linejoin:round;stroke:rgb(14.898682%,14.898682%,14.898682%);stroke-opacity:1;stroke-miterlimit:10;" d="M 73 221.557292 L 77.338542 221.557292 " transform="matrix(0.75,0,0,0.75,0,0)"/>
<path style="fill:none;stroke-width:0.666667;stroke-linecap:square;stroke-linejoin:round;stroke:rgb(14.898682%,14.898682%,14.898682%);stroke-opacity:1;stroke-miterlimit:10;" d="M 73 183.442708 L 77.338542 183.442708 " transform="matrix(0.75,0,0,0.75,0,0)"/>
<path style="fill:none;stroke-width:0.666667;stroke-linecap:square;stroke-linejoin:round;stroke:rgb(14.898682%,14.898682%,14.898682%);stroke-opacity:1;stroke-miterlimit:10;" d="M 73 145.333333 L 77.338542 145.333333 " transform="matrix(0.75,0,0,0.75,0,0)"/>
<path style="fill:none;stroke-width:0.666667;stroke-linecap:square;stroke-linejoin:round;stroke:rgb(14.898682%,14.898682%,14.898682%);stroke-opacity:1;stroke-miterlimit:10;" d="M 73 107.223958 L 77.338542 107.223958 " transform="matrix(0.75,0,0,0.75,0,0)"/>
<path style="fill:none;stroke-width:0.666667;stroke-linecap:square;stroke-linejoin:round;stroke:rgb(14.898682%,14.898682%,14.898682%);stroke-opacity:1;stroke-miterlimit:10;" d="M 73 69.109375 L 77.338542 69.109375 " transform="matrix(0.75,0,0,0.75,0,0)"/>
<path style="fill:none;stroke-width:0.666667;stroke-linecap:square;stroke-linejoin:round;stroke:rgb(14.898682%,14.898682%,14.898682%);stroke-opacity:1;stroke-miterlimit:10;" d="M 73 31 L 77.338542 31 " transform="matrix(0.75,0,0,0.75,0,0)"/>
<path style="fill:none;stroke-width:0.666667;stroke-linecap:square;stroke-linejoin:round;stroke:rgb(14.898682%,14.898682%,14.898682%);stroke-opacity:1;stroke-miterlimit:10;" d="M 507 374 L 502.661458 374 " transform="matrix(0.75,0,0,0.75,0,0)"/>
<path style="fill:none;stroke-width:0.666667;stroke-linecap:square;stroke-linejoin:round;stroke:rgb(14.898682%,14.898682%,14.898682%);stroke-opacity:1;stroke-miterlimit:10;" d="M 507 335.890625 L 502.661458 335.890625 " transform="matrix(0.75,0,0,0.75,0,0)"/>
<path style="fill:none;stroke-width:0.666667;stroke-linecap:square;stroke-linejoin:round;stroke:rgb(14.898682%,14.898682%,14.898682%);stroke-opacity:1;stroke-miterlimit:10;" d="M 507 297.776042 L 502.661458 297.776042 " transform="matrix(0.75,0,0,0.75,0,0)"/>
<path style="fill:none;stroke-width:0.666667;stroke-linecap:square;stroke-linejoin:round;stroke:rgb(14.898682%,14.898682%,14.898682%);stroke-opacity:1;stroke-miterlimit:10;" d="M 507 259.666667 L 502.661458 259.666667 " transform="matrix(0.75,0,0,0.75,0,0)"/>
<path style="fill:none;stroke-width:0.666667;stroke-linecap:square;stroke-linejoin:round;stroke:rgb(14.898682%,14.898682%,14.898682%);stroke-opacity:1;stroke-miterlimit:10;" d="M 507 221.557292 L 502.661458 221.557292 " transform="matrix(0.75,0,0,0.75,0,0)"/>
<path style="fill:none;stroke-width:0.666667;stroke-linecap:square;stroke-linejoin:round;stroke:rgb(14.898682%,14.898682%,14.898682%);stroke-opacity:1;stroke-miterlimit:10;" d="M 507 183.442708 L 502.661458 183.442708 " transform="matrix(0.75,0,0,0.75,0,0)"/>
<path style="fill:none;stroke-width:0.666667;stroke-linecap:square;stroke-linejoin:round;stroke:rgb(14.898682%,14.898682%,14.898682%);stroke-opacity:1;stroke-miterlimit:10;" d="M 507 145.333333 L 502.661458 145.333333 " transform="matrix(0.75,0,0,0.75,0,0)"/>
<path style="fill:none;stroke-width:0.666667;stroke-linecap:square;stroke-linejoin:round;stroke:rgb(14.898682%,14.898682%,14.898682%);stroke-opacity:1;stroke-miterlimit:10;" d="M 507 107.223958 L 502.661458 107.223958 " transform="matrix(0.75,0,0,0.75,0,0)"/>
<path style="fill:none;stroke-width:0.666667;stroke-linecap:square;stroke-linejoin:round;stroke:rgb(14.898682%,14.898682%,14.898682%);stroke-opacity:1;stroke-miterlimit:10;" d="M 507 69.109375 L 502.661458 69.109375 " transform="matrix(0.75,0,0,0.75,0,0)"/>
<path style="fill:none;stroke-width:0.666667;stroke-linecap:square;stroke-linejoin:round;stroke:rgb(14.898682%,14.898682%,14.898682%);stroke-opacity:1;stroke-miterlimit:10;" d="M 507 31 L 502.661458 31 " transform="matrix(0.75,0,0,0.75,0,0)"/>
<path style=" stroke:none;fill-rule:nonzero;fill:rgb(14.898682%,14.898682%,14.898682%);fill-opacity:1;" d="M 47.863281 283.386719 C 46.941406 283.386719 46.316406 283.007812 45.988281 282.25 C 45.660156 281.492188 45.496094 280.59375 45.496094 279.554688 C 45.496094 278.898438 45.554688 278.28125 45.671875 277.707031 C 45.789062 277.132812 46.023438 276.648438 46.375 276.25 C 46.726562 275.851562 47.222656 275.652344 47.863281 275.652344 C 48.355469 275.652344 48.757812 275.769531 49.074219 276.007812 C 49.390625 276.246094 49.632812 276.558594 49.796875 276.941406 C 49.960938 277.324219 50.074219 277.734375 50.136719 278.171875 C 50.199219 278.609375 50.230469 279.070312 50.230469 279.554688 C 50.230469 280.195312 50.167969 280.796875 50.046875 281.359375 C 49.925781 281.921875 49.691406 282.398438 49.34375 282.792969 C 48.996094 283.1875 48.503906 283.386719 47.863281 283.386719 Z M 47.863281 283.09375 C 48.277344 283.09375 48.585938 282.878906 48.792969 282.453125 C 49 282.027344 49.128906 281.554688 49.175781 281.03125 C 49.222656 280.507812 49.246094 279.953125 49.246094 279.367188 C 49.246094 278.804688 49.222656 278.285156 49.175781 277.808594 C 49.128906 277.332031 49.003906 276.898438 48.800781 276.511719 C 48.597656 276.125 48.285156 275.933594 47.863281 275.933594 C 47.441406 275.933594 47.125 276.128906 46.917969 276.519531 C 46.710938 276.910156 46.585938 277.339844 46.539062 277.8125 C 46.492188 278.285156 46.46875 278.804688 46.46875 279.367188 C 46.46875 279.789062 46.476562 280.183594 46.496094 280.554688 C 46.515625 280.925781 46.570312 281.308594 46.660156 281.699219 C 46.75 282.089844 46.894531 282.417969 47.089844 282.6875 C 47.285156 282.957031 47.542969 283.09375 47.863281 283.09375 Z M 47.863281 283.09375 "/>
<path style=" stroke:none;fill-rule:nonzero;fill:rgb(14.898682%,14.898682%,14.898682%);fill-opacity:1;" d="M 45.613281 254.554688 L 45.613281 254.25 C 45.613281 254.234375 45.621094 254.214844 45.636719 254.191406 L 47.382812 252.257812 C 47.648438 251.96875 47.863281 251.730469 48.027344 251.539062 C 48.191406 251.347656 48.351562 251.125 48.511719 250.871094 C 48.671875 250.617188 48.800781 250.359375 48.894531 250.097656 C 48.988281 249.835938 49.035156 249.558594 49.035156 249.269531 C 49.035156 248.957031 48.976562 248.660156 48.863281 248.378906 C 48.75 248.097656 48.582031 247.875 48.355469 247.707031 C 48.128906 247.539062 47.855469 247.453125 47.535156 247.453125 C 47.214844 247.453125 46.921875 247.554688 46.660156 247.753906 C 46.398438 247.953125 46.214844 248.203125 46.105469 248.507812 C 46.136719 248.5 46.179688 248.496094 46.234375 248.496094 C 46.398438 248.496094 46.539062 248.554688 46.660156 248.667969 C 46.78125 248.78125 46.84375 248.925781 46.84375 249.105469 C 46.84375 249.277344 46.78125 249.425781 46.660156 249.546875 C 46.539062 249.667969 46.398438 249.726562 46.234375 249.726562 C 46.054688 249.726562 45.90625 249.667969 45.789062 249.546875 C 45.671875 249.425781 45.613281 249.277344 45.613281 249.105469 C 45.613281 248.824219 45.664062 248.5625 45.769531 248.316406 C 45.875 248.070312 46.027344 247.851562 46.226562 247.660156 C 46.425781 247.46875 46.652344 247.320312 46.902344 247.21875 C 47.152344 247.117188 47.417969 247.066406 47.699219 247.066406 C 48.128906 247.066406 48.527344 247.15625 48.898438 247.335938 C 49.269531 247.515625 49.5625 247.773438 49.777344 248.105469 C 49.992188 248.4375 50.101562 248.824219 50.101562 249.269531 C 50.101562 249.589844 50.03125 249.898438 49.890625 250.191406 C 49.75 250.484375 49.566406 250.75 49.34375 250.992188 C 49.121094 251.234375 48.835938 251.507812 48.484375 251.8125 C 48.132812 252.117188 47.902344 252.320312 47.792969 252.421875 L 46.527344 253.640625 L 47.605469 253.640625 C 48.136719 253.640625 48.578125 253.636719 48.933594 253.628906 C 49.289062 253.621094 49.480469 253.605469 49.503906 253.582031 C 49.589844 253.488281 49.679688 253.144531 49.773438 252.550781 L 50.101562 252.550781 L 49.785156 254.554688 Z M 45.613281 254.554688 "/>
<path style=" stroke:none;fill-rule:nonzero;fill:rgb(14.898682%,14.898682%,14.898682%);fill-opacity:1;" d="M 45.367188 224.121094 L 45.367188 223.722656 L 48.835938 218.53125 C 48.867188 218.5 48.90625 218.484375 48.953125 218.484375 L 49.117188 218.484375 C 49.203125 218.484375 49.246094 218.523438 49.246094 218.601562 L 49.246094 223.722656 L 50.347656 223.722656 L 50.347656 224.121094 L 49.246094 224.121094 L 49.246094 225.222656 C 49.246094 225.371094 49.355469 225.46875 49.574219 225.511719 C 49.792969 225.554688 50.046875 225.574219 50.335938 225.574219 L 50.335938 225.972656 L 47.242188 225.972656 L 47.242188 225.574219 C 47.53125 225.574219 47.785156 225.554688 48.003906 225.511719 C 48.222656 225.46875 48.332031 225.371094 48.332031 225.222656 L 48.332031 224.121094 Z M 45.742188 223.722656 L 48.402344 223.722656 L 48.402344 219.738281 Z M 45.742188 223.722656 "/>
<path style=" stroke:none;fill-rule:nonzero;fill:rgb(14.898682%,14.898682%,14.898682%);fill-opacity:1;" d="M 47.863281 197.636719 C 47.394531 197.636719 47.003906 197.511719 46.695312 197.265625 C 46.386719 197.019531 46.148438 196.699219 45.976562 196.304688 C 45.804688 195.910156 45.683594 195.496094 45.617188 195.0625 C 45.550781 194.628906 45.519531 194.195312 45.519531 193.757812 C 45.519531 193.164062 45.632812 192.566406 45.863281 191.96875 C 46.09375 191.371094 46.433594 190.878906 46.882812 190.488281 C 47.332031 190.097656 47.867188 189.902344 48.484375 189.902344 C 48.742188 189.902344 48.980469 189.949219 49.203125 190.042969 C 49.425781 190.136719 49.601562 190.277344 49.726562 190.46875 C 49.851562 190.660156 49.914062 190.890625 49.914062 191.15625 C 49.914062 191.3125 49.859375 191.441406 49.753906 191.542969 C 49.648438 191.644531 49.519531 191.695312 49.363281 191.695312 C 49.222656 191.695312 49.097656 191.640625 48.992188 191.535156 C 48.886719 191.429688 48.835938 191.304688 48.835938 191.15625 C 48.835938 191.007812 48.886719 190.878906 48.992188 190.773438 C 49.097656 190.667969 49.222656 190.617188 49.363281 190.617188 L 49.433594 190.617188 C 49.332031 190.484375 49.195312 190.382812 49.023438 190.316406 C 48.851562 190.25 48.671875 190.21875 48.484375 190.21875 C 48.257812 190.21875 48.046875 190.269531 47.855469 190.371094 C 47.664062 190.472656 47.492188 190.605469 47.335938 190.773438 C 47.179688 190.941406 47.050781 191.128906 46.949219 191.332031 C 46.847656 191.535156 46.769531 191.765625 46.714844 192.023438 C 46.660156 192.28125 46.625 192.523438 46.609375 192.75 C 46.59375 192.976562 46.585938 193.261719 46.585938 193.605469 C 46.71875 193.300781 46.90625 193.050781 47.148438 192.855469 C 47.390625 192.660156 47.660156 192.5625 47.957031 192.5625 C 48.292969 192.5625 48.597656 192.628906 48.871094 192.765625 C 49.144531 192.902344 49.378906 193.089844 49.578125 193.328125 C 49.777344 193.566406 49.929688 193.839844 50.035156 194.148438 C 50.140625 194.457031 50.195312 194.769531 50.195312 195.082031 C 50.195312 195.519531 50.097656 195.9375 49.902344 196.335938 C 49.707031 196.734375 49.429688 197.050781 49.074219 197.285156 C 48.71875 197.519531 48.316406 197.636719 47.863281 197.636719 Z M 47.863281 197.285156 C 48.152344 197.285156 48.382812 197.21875 48.558594 197.085938 C 48.734375 196.953125 48.863281 196.777344 48.945312 196.558594 C 49.027344 196.339844 49.078125 196.117188 49.097656 195.894531 C 49.117188 195.671875 49.128906 195.402344 49.128906 195.082031 C 49.128906 194.660156 49.109375 194.296875 49.070312 193.996094 C 49.03125 193.695312 48.921875 193.429688 48.742188 193.199219 C 48.5625 192.96875 48.289062 192.855469 47.921875 192.855469 C 47.617188 192.855469 47.367188 192.957031 47.171875 193.164062 C 46.976562 193.371094 46.832031 193.632812 46.742188 193.945312 C 46.652344 194.257812 46.609375 194.558594 46.609375 194.847656 C 46.609375 194.949219 46.613281 195.023438 46.621094 195.070312 C 46.621094 195.085938 46.617188 195.09375 46.613281 195.097656 C 46.609375 195.101562 46.609375 195.113281 46.609375 195.128906 C 46.609375 195.449219 46.640625 195.773438 46.707031 196.101562 C 46.773438 196.429688 46.898438 196.707031 47.082031 196.9375 C 47.265625 197.167969 47.527344 197.285156 47.863281 197.285156 Z M 47.863281 197.285156 "/>
<path style=" stroke:none;fill-rule:nonzero;fill:rgb(14.898682%,14.898682%,14.898682%);fill-opacity:1;" d="M 45.519531 167.09375 C 45.519531 166.648438 45.667969 166.253906 45.964844 165.90625 C 46.261719 165.558594 46.644531 165.265625 47.113281 165.03125 L 46.691406 164.761719 C 46.433594 164.597656 46.222656 164.375 46.0625 164.09375 C 45.902344 163.8125 45.824219 163.519531 45.824219 163.214844 C 45.824219 162.855469 45.917969 162.53125 46.105469 162.242188 C 46.292969 161.953125 46.542969 161.726562 46.859375 161.5625 C 47.175781 161.398438 47.511719 161.316406 47.863281 161.316406 C 48.199219 161.316406 48.519531 161.382812 48.828125 161.515625 C 49.136719 161.648438 49.390625 161.84375 49.589844 162.097656 C 49.789062 162.351562 49.890625 162.652344 49.890625 163.003906 C 49.890625 163.253906 49.832031 163.488281 49.714844 163.703125 C 49.597656 163.917969 49.433594 164.109375 49.226562 164.28125 C 49.019531 164.453125 48.800781 164.601562 48.566406 164.726562 L 49.199219 165.136719 C 49.496094 165.332031 49.734375 165.585938 49.917969 165.898438 C 50.101562 166.210938 50.195312 166.542969 50.195312 166.894531 C 50.195312 167.300781 50.085938 167.671875 49.867188 168.003906 C 49.648438 168.335938 49.359375 168.59375 49 168.777344 C 48.640625 168.960938 48.261719 169.050781 47.863281 169.050781 C 47.472656 169.050781 47.097656 168.972656 46.738281 168.816406 C 46.378906 168.660156 46.085938 168.433594 45.859375 168.132812 C 45.632812 167.832031 45.519531 167.484375 45.519531 167.09375 Z M 46.128906 167.09375 C 46.128906 167.390625 46.210938 167.664062 46.375 167.910156 C 46.539062 168.15625 46.753906 168.347656 47.023438 168.488281 C 47.292969 168.628906 47.574219 168.699219 47.863281 168.699219 C 48.300781 168.699219 48.695312 168.570312 49.050781 168.3125 C 49.40625 168.054688 49.585938 167.71875 49.585938 167.304688 C 49.585938 167.15625 49.554688 167.011719 49.496094 166.871094 C 49.4375 166.730469 49.359375 166.605469 49.257812 166.492188 C 49.15625 166.378906 49.042969 166.28125 48.917969 166.203125 L 47.417969 165.230469 C 47.183594 165.355469 46.964844 165.515625 46.765625 165.707031 C 46.566406 165.898438 46.410156 166.109375 46.296875 166.34375 C 46.183594 166.578125 46.128906 166.828125 46.128906 167.09375 Z M 46.902344 163.660156 L 48.273438 164.539062 C 48.585938 164.359375 48.84375 164.140625 49.046875 163.878906 C 49.25 163.617188 49.351562 163.324219 49.351562 163.003906 C 49.351562 162.746094 49.277344 162.511719 49.132812 162.300781 C 48.988281 162.089844 48.804688 161.925781 48.578125 161.808594 C 48.351562 161.691406 48.109375 161.632812 47.851562 161.632812 C 47.625 161.632812 47.394531 161.679688 47.164062 161.769531 C 46.933594 161.859375 46.746094 161.988281 46.597656 162.160156 C 46.449219 162.332031 46.375 162.535156 46.375 162.769531 C 46.375 163.121094 46.550781 163.417969 46.902344 163.660156 Z M 46.902344 163.660156 "/>
<path style=" stroke:none;fill-rule:nonzero;fill:rgb(14.898682%,14.898682%,14.898682%);fill-opacity:1;" d="M 40.59375 140.222656 L 40.59375 139.824219 C 41.53125 139.824219 42 139.707031 42 139.472656 L 42 133.566406 C 41.609375 133.753906 41.117188 133.847656 40.523438 133.847656 L 40.523438 133.449219 C 41.445312 133.449219 42.140625 133.210938 42.609375 132.734375 L 42.773438 132.734375 C 42.796875 132.734375 42.820312 132.746094 42.84375 132.765625 C 42.867188 132.785156 42.878906 132.804688 42.878906 132.828125 L 42.878906 139.472656 C 42.878906 139.707031 43.347656 139.824219 44.285156 139.824219 L 44.285156 140.222656 Z M 40.59375 140.222656 "/>
<path style=" stroke:none;fill-rule:nonzero;fill:rgb(14.898682%,14.898682%,14.898682%);fill-opacity:1;" d="M 47.863281 140.46875 C 46.941406 140.46875 46.316406 140.089844 45.988281 139.332031 C 45.660156 138.574219 45.496094 137.675781 45.496094 136.636719 C 45.496094 135.980469 45.554688 135.367188 45.671875 134.792969 C 45.789062 134.21875 46.023438 133.730469 46.375 133.332031 C 46.726562 132.933594 47.222656 132.734375 47.863281 132.734375 C 48.355469 132.734375 48.757812 132.855469 49.074219 133.09375 C 49.390625 133.332031 49.632812 133.640625 49.796875 134.023438 C 49.960938 134.40625 50.074219 134.816406 50.136719 135.253906 C 50.199219 135.691406 50.230469 136.152344 50.230469 136.636719 C 50.230469 137.277344 50.167969 137.878906 50.046875 138.441406 C 49.925781 139.003906 49.691406 139.484375 49.34375 139.878906 C 48.996094 140.273438 48.503906 140.46875 47.863281 140.46875 Z M 47.863281 140.175781 C 48.277344 140.175781 48.585938 139.964844 48.792969 139.539062 C 49 139.113281 49.128906 138.636719 49.175781 138.113281 C 49.222656 137.589844 49.246094 137.035156 49.246094 136.449219 C 49.246094 135.886719 49.222656 135.367188 49.175781 134.890625 C 49.128906 134.414062 49.003906 133.984375 48.800781 133.597656 C 48.597656 133.210938 48.285156 133.015625 47.863281 133.015625 C 47.441406 133.015625 47.125 133.210938 46.917969 133.601562 C 46.710938 133.992188 46.585938 134.425781 46.539062 134.898438 C 46.492188 135.371094 46.46875 135.886719 46.46875 136.449219 C 46.46875 136.871094 46.476562 137.269531 46.496094 137.640625 C 46.515625 138.011719 46.570312 138.390625 46.660156 138.78125 C 46.75 139.171875 46.894531 139.503906 47.089844 139.773438 C 47.285156 140.042969 47.542969 140.175781 47.863281 140.175781 Z M 47.863281 140.175781 "/>
<path style=" stroke:none;fill-rule:nonzero;fill:rgb(14.898682%,14.898682%,14.898682%);fill-opacity:1;" d="M 40.59375 111.640625 L 40.59375 111.242188 C 41.53125 111.242188 42 111.125 42 110.890625 L 42 104.984375 C 41.609375 105.171875 41.117188 105.265625 40.523438 105.265625 L 40.523438 104.867188 C 41.445312 104.867188 42.140625 104.628906 42.609375 104.152344 L 42.773438 104.152344 C 42.796875 104.152344 42.820312 104.160156 42.84375 104.179688 C 42.867188 104.199219 42.878906 104.222656 42.878906 104.246094 L 42.878906 110.890625 C 42.878906 111.125 43.347656 111.242188 44.285156 111.242188 L 44.285156 111.640625 Z M 40.59375 111.640625 "/>
<path style=" stroke:none;fill-rule:nonzero;fill:rgb(14.898682%,14.898682%,14.898682%);fill-opacity:1;" d="M 45.613281 111.640625 L 45.613281 111.335938 C 45.613281 111.320312 45.621094 111.300781 45.636719 111.277344 L 47.382812 109.34375 C 47.648438 109.054688 47.863281 108.8125 48.027344 108.621094 C 48.191406 108.429688 48.351562 108.207031 48.511719 107.953125 C 48.671875 107.699219 48.800781 107.441406 48.894531 107.179688 C 48.988281 106.917969 49.035156 106.644531 49.035156 106.355469 C 49.035156 106.042969 48.976562 105.746094 48.863281 105.464844 C 48.75 105.183594 48.582031 104.957031 48.355469 104.789062 C 48.128906 104.621094 47.855469 104.539062 47.535156 104.539062 C 47.214844 104.539062 46.921875 104.636719 46.660156 104.835938 C 46.398438 105.035156 46.214844 105.289062 46.105469 105.59375 C 46.136719 105.585938 46.179688 105.582031 46.234375 105.582031 C 46.398438 105.582031 46.539062 105.636719 46.660156 105.75 C 46.78125 105.863281 46.84375 106.011719 46.84375 106.191406 C 46.84375 106.363281 46.78125 106.507812 46.660156 106.628906 C 46.539062 106.75 46.398438 106.8125 46.234375 106.8125 C 46.054688 106.8125 45.90625 106.75 45.789062 106.628906 C 45.671875 106.507812 45.613281 106.363281 45.613281 106.191406 C 45.613281 105.910156 45.664062 105.644531 45.769531 105.398438 C 45.875 105.152344 46.027344 104.933594 46.226562 104.742188 C 46.425781 104.550781 46.652344 104.40625 46.902344 104.304688 C 47.152344 104.203125 47.417969 104.152344 47.699219 104.152344 C 48.128906 104.152344 48.527344 104.242188 48.898438 104.421875 C 49.269531 104.601562 49.5625 104.855469 49.777344 105.1875 C 49.992188 105.519531 50.101562 105.910156 50.101562 106.355469 C 50.101562 106.675781 50.03125 106.980469 49.890625 107.273438 C 49.75 107.566406 49.566406 107.835938 49.34375 108.078125 C 49.121094 108.320312 48.835938 108.59375 48.484375 108.898438 C 48.132812 109.203125 47.902344 109.40625 47.792969 109.507812 L 46.527344 110.726562 L 47.605469 110.726562 C 48.136719 110.726562 48.578125 110.722656 48.933594 110.714844 C 49.289062 110.707031 49.480469 110.691406 49.503906 110.667969 C 49.589844 110.574219 49.679688 110.230469 49.773438 109.636719 L 50.101562 109.636719 L 49.785156 111.640625 Z M 45.613281 111.640625 "/>
<path style=" stroke:none;fill-rule:nonzero;fill:rgb(14.898682%,14.898682%,14.898682%);fill-opacity:1;" d="M 40.59375 83.054688 L 40.59375 82.65625 C 41.53125 82.65625 42 82.539062 42 82.304688 L 42 76.398438 C 41.609375 76.585938 41.117188 76.679688 40.523438 76.679688 L 40.523438 76.28125 C 41.445312 76.28125 42.140625 76.042969 42.609375 75.566406 L 42.773438 75.566406 C 42.796875 75.566406 42.820312 75.578125 42.84375 75.597656 C 42.867188 75.617188 42.878906 75.636719 42.878906 75.660156 L 42.878906 82.304688 C 42.878906 82.539062 43.347656 82.65625 44.285156 82.65625 L 44.285156 83.054688 Z M 40.59375 83.054688 "/>
<path style=" stroke:none;fill-rule:nonzero;fill:rgb(14.898682%,14.898682%,14.898682%);fill-opacity:1;" d="M 45.367188 81.203125 L 45.367188 80.804688 L 48.835938 75.613281 C 48.867188 75.582031 48.90625 75.566406 48.953125 75.566406 L 49.117188 75.566406 C 49.203125 75.566406 49.246094 75.605469 49.246094 75.683594 L 49.246094 80.804688 L 50.347656 80.804688 L 50.347656 81.203125 L 49.246094 81.203125 L 49.246094 82.304688 C 49.246094 82.453125 49.355469 82.550781 49.574219 82.59375 C 49.792969 82.636719 50.046875 82.65625 50.335938 82.65625 L 50.335938 83.054688 L 47.242188 83.054688 L 47.242188 82.65625 C 47.53125 82.65625 47.785156 82.636719 48.003906 82.59375 C 48.222656 82.550781 48.332031 82.453125 48.332031 82.304688 L 48.332031 81.203125 Z M 45.742188 80.804688 L 48.402344 80.804688 L 48.402344 76.820312 Z M 45.742188 80.804688 "/>
<path style=" stroke:none;fill-rule:nonzero;fill:rgb(14.898682%,14.898682%,14.898682%);fill-opacity:1;" d="M 40.59375 54.472656 L 40.59375 54.074219 C 41.53125 54.074219 42 53.957031 42 53.722656 L 42 47.816406 C 41.609375 48.003906 41.117188 48.097656 40.523438 48.097656 L 40.523438 47.699219 C 41.445312 47.699219 42.140625 47.460938 42.609375 46.984375 L 42.773438 46.984375 C 42.796875 46.984375 42.820312 46.996094 42.84375 47.015625 C 42.867188 47.035156 42.878906 47.054688 42.878906 47.078125 L 42.878906 53.722656 C 42.878906 53.957031 43.347656 54.074219 44.285156 54.074219 L 44.285156 54.472656 Z M 40.59375 54.472656 "/>
<path style=" stroke:none;fill-rule:nonzero;fill:rgb(14.898682%,14.898682%,14.898682%);fill-opacity:1;" d="M 47.863281 54.71875 C 47.394531 54.71875 47.003906 54.597656 46.695312 54.351562 C 46.386719 54.105469 46.148438 53.785156 45.976562 53.390625 C 45.804688 52.996094 45.683594 52.582031 45.617188 52.148438 C 45.550781 51.714844 45.519531 51.277344 45.519531 50.839844 C 45.519531 50.246094 45.632812 49.652344 45.863281 49.054688 C 46.09375 48.457031 46.433594 47.960938 46.882812 47.570312 C 47.332031 47.179688 47.867188 46.984375 48.484375 46.984375 C 48.742188 46.984375 48.980469 47.03125 49.203125 47.125 C 49.425781 47.21875 49.601562 47.363281 49.726562 47.554688 C 49.851562 47.746094 49.914062 47.972656 49.914062 48.238281 C 49.914062 48.394531 49.859375 48.523438 49.753906 48.625 C 49.648438 48.726562 49.519531 48.777344 49.363281 48.777344 C 49.222656 48.777344 49.097656 48.726562 48.992188 48.621094 C 48.886719 48.515625 48.835938 48.386719 48.835938 48.238281 C 48.835938 48.089844 48.886719 47.964844 48.992188 47.859375 C 49.097656 47.753906 49.222656 47.699219 49.363281 47.699219 L 49.433594 47.699219 C 49.332031 47.566406 49.195312 47.46875 49.023438 47.402344 C 48.851562 47.335938 48.671875 47.300781 48.484375 47.300781 C 48.257812 47.300781 48.046875 47.351562 47.855469 47.453125 C 47.664062 47.554688 47.492188 47.691406 47.335938 47.859375 C 47.179688 48.027344 47.050781 48.210938 46.949219 48.414062 C 46.847656 48.617188 46.769531 48.847656 46.714844 49.105469 C 46.660156 49.363281 46.625 49.605469 46.609375 49.832031 C 46.59375 50.058594 46.585938 50.34375 46.585938 50.6875 C 46.71875 50.382812 46.90625 50.132812 47.148438 49.9375 C 47.390625 49.742188 47.660156 49.644531 47.957031 49.644531 C 48.292969 49.644531 48.597656 49.714844 48.871094 49.851562 C 49.144531 49.988281 49.378906 50.175781 49.578125 50.414062 C 49.777344 50.652344 49.929688 50.925781 50.035156 51.234375 C 50.140625 51.542969 50.195312 51.851562 50.195312 52.164062 C 50.195312 52.601562 50.097656 53.019531 49.902344 53.417969 C 49.707031 53.816406 49.429688 54.132812 49.074219 54.367188 C 48.71875 54.601562 48.316406 54.71875 47.863281 54.71875 Z M 47.863281 54.367188 C 48.152344 54.367188 48.382812 54.300781 48.558594 54.167969 C 48.734375 54.035156 48.863281 53.859375 48.945312 53.640625 C 49.027344 53.421875 49.078125 53.203125 49.097656 52.980469 C 49.117188 52.757812 49.128906 52.484375 49.128906 52.164062 C 49.128906 51.742188 49.109375 51.382812 49.070312 51.082031 C 49.03125 50.78125 48.921875 50.515625 48.742188 50.285156 C 48.5625 50.054688 48.289062 49.9375 47.921875 49.9375 C 47.617188 49.9375 47.367188 50.042969 47.171875 50.25 C 46.976562 50.457031 46.832031 50.714844 46.742188 51.027344 C 46.652344 51.339844 46.609375 51.640625 46.609375 51.929688 C 46.609375 52.03125 46.613281 52.105469 46.621094 52.152344 C 46.621094 52.167969 46.617188 52.179688 46.613281 52.183594 C 46.609375 52.1875 46.609375 52.195312 46.609375 52.210938 C 46.609375 52.53125 46.640625 52.855469 46.707031 53.183594 C 46.773438 53.511719 46.898438 53.792969 47.082031 54.023438 C 47.265625 54.253906 47.527344 54.367188 47.863281 54.367188 Z M 47.863281 54.367188 "/>
<path style=" stroke:none;fill-rule:nonzero;fill:rgb(14.898682%,14.898682%,14.898682%);fill-opacity:1;" d="M 40.59375 25.890625 L 40.59375 25.492188 C 41.53125 25.492188 42 25.375 42 25.140625 L 42 19.234375 C 41.609375 19.421875 41.117188 19.515625 40.523438 19.515625 L 40.523438 19.117188 C 41.445312 19.117188 42.140625 18.878906 42.609375 18.402344 L 42.773438 18.402344 C 42.796875 18.402344 42.820312 18.410156 42.84375 18.429688 C 42.867188 18.449219 42.878906 18.472656 42.878906 18.496094 L 42.878906 25.140625 C 42.878906 25.375 43.347656 25.492188 44.285156 25.492188 L 44.285156 25.890625 Z M 40.59375 25.890625 "/>
<path style=" stroke:none;fill-rule:nonzero;fill:rgb(14.898682%,14.898682%,14.898682%);fill-opacity:1;" d="M 45.519531 24.179688 C 45.519531 23.734375 45.667969 23.335938 45.964844 22.988281 C 46.261719 22.640625 46.644531 22.351562 47.113281 22.117188 L 46.691406 21.847656 C 46.433594 21.683594 46.222656 21.460938 46.0625 21.179688 C 45.902344 20.898438 45.824219 20.605469 45.824219 20.300781 C 45.824219 19.941406 45.917969 19.617188 46.105469 19.328125 C 46.292969 19.039062 46.542969 18.8125 46.859375 18.648438 C 47.175781 18.484375 47.511719 18.402344 47.863281 18.402344 C 48.199219 18.402344 48.519531 18.46875 48.828125 18.601562 C 49.136719 18.734375 49.390625 18.925781 49.589844 19.179688 C 49.789062 19.433594 49.890625 19.738281 49.890625 20.089844 C 49.890625 20.339844 49.832031 20.570312 49.714844 20.785156 C 49.597656 21 49.433594 21.195312 49.226562 21.367188 C 49.019531 21.539062 48.800781 21.6875 48.566406 21.8125 L 49.199219 22.222656 C 49.496094 22.417969 49.734375 22.671875 49.917969 22.984375 C 50.101562 23.296875 50.195312 23.628906 50.195312 23.980469 C 50.195312 24.386719 50.085938 24.753906 49.867188 25.085938 C 49.648438 25.417969 49.359375 25.675781 49 25.859375 C 48.640625 26.042969 48.261719 26.136719 47.863281 26.136719 C 47.472656 26.136719 47.097656 26.058594 46.738281 25.902344 C 46.378906 25.746094 46.085938 25.515625 45.859375 25.214844 C 45.632812 24.914062 45.519531 24.570312 45.519531 24.179688 Z M 46.128906 24.179688 C 46.128906 24.476562 46.210938 24.746094 46.375 24.992188 C 46.539062 25.238281 46.753906 25.433594 47.023438 25.574219 C 47.292969 25.714844 47.574219 25.785156 47.863281 25.785156 C 48.300781 25.785156 48.695312 25.65625 49.050781 25.398438 C 49.40625 25.140625 49.585938 24.804688 49.585938 24.390625 C 49.585938 24.242188 49.554688 24.097656 49.496094 23.957031 C 49.4375 23.816406 49.359375 23.6875 49.257812 23.574219 C 49.15625 23.460938 49.042969 23.367188 48.917969 23.289062 L 47.417969 22.316406 C 47.183594 22.441406 46.964844 22.597656 46.765625 22.789062 C 46.566406 22.980469 46.410156 23.195312 46.296875 23.429688 C 46.183594 23.664062 46.128906 23.914062 46.128906 24.179688 Z M 46.902344 20.746094 L 48.273438 21.625 C 48.585938 21.445312 48.84375 21.222656 49.046875 20.960938 C 49.25 20.699219 49.351562 20.410156 49.351562 20.089844 C 49.351562 19.832031 49.277344 19.597656 49.132812 19.386719 C 48.988281 19.175781 48.804688 19.011719 48.578125 18.894531 C 48.351562 18.777344 48.109375 18.71875 47.851562 18.71875 C 47.625 18.71875 47.394531 18.761719 47.164062 18.851562 C 46.933594 18.941406 46.746094 19.074219 46.597656 19.246094 C 46.449219 19.417969 46.375 19.621094 46.375 19.855469 C 46.375 20.207031 46.550781 20.503906 46.902344 20.746094 Z M 46.902344 20.746094 "/>
<path style=" stroke:none;fill-rule:nonzero;fill:rgb(14.898682%,14.898682%,14.898682%);fill-opacity:1;" d="M 19.8125 70.34375 L 19.8125 69.921875 C 20.632812 69.921875 21.042969 69.683594 21.042969 69.207031 L 21.042969 62.632812 C 20.785156 62.585938 20.375 62.5625 19.8125 62.5625 L 19.8125 62.140625 L 22.109375 62.140625 C 22.148438 62.140625 22.175781 62.15625 22.191406 62.1875 L 26.433594 68.445312 L 26.433594 63.277344 C 26.433594 62.800781 26.023438 62.5625 25.203125 62.5625 L 25.203125 62.140625 L 28.050781 62.140625 L 28.050781 62.5625 C 27.230469 62.5625 26.820312 62.800781 26.820312 63.277344 L 26.820312 70.238281 C 26.820312 70.261719 26.804688 70.285156 26.773438 70.308594 C 26.742188 70.332031 26.71875 70.34375 26.703125 70.34375 L 26.550781 70.34375 C 26.511719 70.34375 26.484375 70.328125 26.46875 70.296875 L 21.429688 62.878906 L 21.429688 69.207031 C 21.429688 69.683594 21.84375 69.921875 22.671875 69.921875 L 22.671875 70.34375 Z M 19.8125 70.34375 "/>
</g>
</svg>
