<?xml version="1.0" standalone="no"?>
<!DOCTYPE svg PUBLIC "-//W3C//DTD SVG 20010904//EN"
 "http://www.w3.org/TR/2001/REC-SVG-20010904/DTD/svg10.dtd">
<svg version="1.0" xmlns="http://www.w3.org/2000/svg"
 width="512.000000pt" height="512.000000pt" viewBox="0 0 512.000000 512.000000"
 preserveAspectRatio="xMidYMid meet">

<g transform="translate(0.000000,512.000000) scale(0.100000,-0.100000)"
fill="#000000" stroke="none">
<path d="M2410 4760 l0 -360 150 0 150 0 0 360 0 360 -150 0 -150 0 0 -360z"/>
<path d="M1568 4957 c-70 -29 -128 -57 -128 -62 0 -15 250 -638 260 -649 6 -6
249 80 277 99 6 4 -264 659 -273 661 -5 2 -66 -21 -136 -49z"/>
<path d="M3407 5003 c-4 -6 -164 -404 -247 -614 l-18 -46 138 -55 c90 -36 140
-52 143 -44 3 6 64 156 135 334 128 315 131 323 109 331 -12 5 -69 28 -127 51
-58 23 -110 44 -116 47 -7 2 -14 1 -17 -4z"/>
<path d="M753 4427 c-56 -50 -102 -96 -102 -100 -1 -11 469 -527 479 -527 4 0
56 43 114 97 104 94 106 97 89 117 -99 113 -459 502 -467 503 -6 2 -57 -39
-113 -90z"/>
<path d="M4011 4260 c-128 -142 -233 -262 -232 -266 2 -11 203 -194 213 -194
12 0 473 511 473 524 0 15 -195 196 -210 195 -5 0 -115 -117 -244 -259z"/>
<path d="M2385 3909 c-610 -77 -1100 -573 -1175 -1189 -6 -51 -10 -386 -10
-852 l0 -767 -66 -32 c-124 -61 -225 -191 -253 -327 -7 -33 -11 -185 -11 -397
l0 -345 1690 0 1690 0 0 345 c0 212 -4 364 -11 397 -28 135 -129 266 -252 326
l-66 33 -4 822 c-3 792 -4 825 -24 912 -73 313 -231 575 -459 764 -300 248
-671 357 -1049 310z m436 -322 c188 -49 343 -138 485 -281 142 -141 230 -293
282 -485 l26 -96 4 -487 3 -488 -1061 0 -1061 0 3 488 4 487 26 96 c52 192
140 344 282 485 167 168 362 267 592 304 102 16 307 4 415 -23z m799 -2302 l0
-165 -1060 0 -1060 0 0 165 0 165 1060 0 1060 0 0 -165z m230 -484 c19 -10 48
-35 65 -55 l30 -38 3 -204 3 -204 -1391 0 -1391 0 3 204 3 204 30 38 c17 20
46 45 65 55 33 18 86 19 1290 19 1204 0 1257 -1 1290 -19z"/>
<path d="M2410 2885 l0 -405 150 0 150 0 0 405 0 405 -150 0 -150 0 0 -405z"/>
<path d="M2410 2120 l0 -150 150 0 150 0 0 150 0 150 -150 0 -150 0 0 -150z"/>
</g>
</svg>
