<?xml version="1.0" standalone="no"?>
<!DOCTYPE svg PUBLIC "-//W3C//DTD SVG 20010904//EN"
 "http://www.w3.org/TR/2001/REC-SVG-20010904/DTD/svg10.dtd">
<svg version="1.0" xmlns="http://www.w3.org/2000/svg"
 width="512.000000pt" height="512.000000pt" viewBox="0 0 512.000000 512.000000"
 preserveAspectRatio="xMidYMid meet">

<g transform="translate(0.000000,512.000000) scale(0.100000,-0.100000)"
fill="#000000" stroke="none">
<path d="M2455 5105 c-172 -37 -325 -157 -405 -314 -59 -118 -63 -143 -68
-443 l-4 -278 -177 0 c-167 0 -181 -1 -222 -23 -29 -16 -54 -40 -74 -72 l-30
-48 -3 -246 -3 -246 -47 -19 c-273 -110 -543 -310 -729 -541 -168 -210 -298
-494 -355 -777 -19 -97 -23 -144 -23 -328 1 -234 14 -327 75 -525 158 -508
539 -921 1028 -1114 472 -186 966 -171 1418 44 811 384 1203 1307 919 2161
-116 350 -345 661 -650 879 -82 59 -314 184 -392 212 l-33 11 0 245 c0 236 -1
245 -23 288 -16 29 -40 54 -72 74 -48 30 -49 30 -227 34 l-178 3 0 227 c0 155
5 246 14 291 67 310 452 423 677 198 55 -55 79 -96 103 -177 13 -45 16 -110
16 -375 0 -367 6 -414 69 -541 68 -137 173 -233 311 -288 107 -42 172 -48 477
-45 l283 3 26 26 c47 47 29 136 -32 159 -14 6 -152 10 -308 10 -229 0 -293 3
-336 16 -95 28 -171 85 -225 169 -58 92 -58 90 -65 495 -7 407 -9 419 -70 541
-122 242 -399 373 -665 314z m35 -1421 l0 -186 -22 6 c-197 54 -558 54 -775
-1 l-23 -5 0 186 0 186 410 0 410 0 0 -186z m-191 -350 c459 -67 842 -310
1098 -697 172 -260 254 -537 254 -857 0 -159 -10 -245 -46 -390 -106 -423
-400 -796 -790 -1002 -235 -123 -464 -179 -735 -179 -600 1 -1134 331 -1404
869 -225 449 -220 984 15 1432 306 584 960 919 1608 824z"/>
<path d="M832 1685 c-40 -34 -44 -58 -32 -181 55 -538 492 -960 1027 -991
l102 -6 30 31 c63 63 28 155 -62 166 -23 3 -73 8 -112 12 -38 3 -106 17 -150
31 -360 112 -614 429 -641 800 -7 97 -19 130 -55 148 -41 22 -73 18 -107 -10z"/>
<path d="M4063 4193 c-12 -2 -33 -16 -47 -30 l-26 -26 0 -194 c0 -192 0 -194
24 -218 47 -47 112 -43 150 9 19 25 21 41 21 209 0 203 -6 225 -67 246 -17 6
-31 10 -32 10 -1 -1 -11 -4 -23 -6z"/>
<path d="M4475 3991 c-50 -31 -251 -244 -256 -271 -12 -68 29 -120 94 -120 39
0 47 6 174 133 124 124 133 135 133 171 0 48 -13 72 -50 91 -38 20 -59 19 -95
-4z"/>
<path d="M4370 3559 c-52 -20 -76 -90 -50 -140 23 -41 59 -49 240 -49 181 0
217 8 240 49 27 52 1 122 -52 140 -39 14 -344 13 -378 0z"/>
<path d="M4242 3324 c-17 -16 -32 -36 -33 -44 -7 -62 0 -73 128 -201 133 -135
169 -158 216 -140 46 18 67 47 67 93 0 40 -5 47 -133 175 -118 120 -137 135
-173 140 -35 4 -46 1 -72 -23z"/>
<path d="M4019 3221 l-29 -29 0 -192 0 -192 29 -29 c62 -62 153 -26 167 67 3
24 5 112 3 195 l-4 151 -33 29 c-44 40 -93 40 -133 0z"/>
</g>
</svg>
