<svg id="svg" version="1.1" xmlns="http://www.w3.org/2000/svg" xmlns:xlink="http://www.w3.org/1999/xlink" width="400" height="257.03125" viewBox="0, 0, 400,257.03125"><g id="svgg"><path id="path0" d="M9.769 0.487 C 9.769 0.754,9.942 1.040,10.154 1.121 C 10.406 1.218,10.540 1.618,10.540 2.278 C 10.540 2.938,10.673 3.338,10.925 3.435 C 11.151 3.521,11.311 3.907,11.311 4.362 C 11.311 4.883,11.439 5.141,11.697 5.141 C 11.952 5.141,12.082 5.396,12.082 5.894 C 12.082 6.308,12.256 6.821,12.468 7.033 C 12.680 7.245,12.853 7.650,12.853 7.932 C 12.853 8.215,13.027 8.620,13.239 8.832 C 13.451 9.044,13.625 9.515,13.625 9.879 C 13.625 10.295,13.767 10.540,14.010 10.540 C 14.289 10.540,14.396 10.826,14.396 11.576 C 14.396 12.260,14.527 12.663,14.781 12.761 C 15.001 12.845,15.167 13.228,15.167 13.652 C 15.167 14.142,15.299 14.396,15.553 14.396 C 15.804 14.396,15.938 14.647,15.938 15.118 C 15.938 15.515,16.108 16.065,16.316 16.339 C 16.523 16.613,16.697 17.102,16.701 17.425 C 16.706 17.747,16.912 18.094,17.159 18.196 C 17.442 18.312,17.614 18.668,17.622 19.152 C 17.630 19.610,17.761 19.897,17.944 19.859 C 18.113 19.823,18.262 19.881,18.274 19.987 C 18.286 20.093,18.336 20.566,18.384 21.038 C 18.433 21.510,18.662 22.035,18.894 22.205 C 19.127 22.374,19.295 22.624,19.268 22.760 C 19.141 23.404,19.316 23.907,19.666 23.907 C 19.944 23.907,20.051 24.193,20.051 24.936 C 20.051 25.678,20.159 25.964,20.437 25.964 C 20.706 25.964,20.823 26.235,20.823 26.864 C 20.823 27.492,20.939 27.763,21.208 27.763 C 21.465 27.763,21.594 28.021,21.594 28.535 C 21.594 29.049,21.722 29.306,21.979 29.306 C 22.265 29.306,22.365 29.606,22.365 30.463 C 22.365 31.320,22.465 31.620,22.751 31.620 C 23.008 31.620,23.136 31.877,23.136 32.391 C 23.136 32.905,23.265 33.162,23.522 33.162 C 23.801 33.162,23.907 33.448,23.907 34.198 C 23.907 34.882,24.039 35.285,24.293 35.383 C 24.513 35.467,24.679 35.850,24.679 36.274 C 24.679 36.764,24.810 37.018,25.064 37.018 C 25.321 37.018,25.450 37.275,25.450 37.789 C 25.450 38.303,25.578 38.560,25.835 38.560 C 26.121 38.560,26.221 38.860,26.221 39.717 C 26.221 40.574,26.321 40.874,26.607 40.874 C 26.865 40.874,26.992 41.132,26.992 41.653 C 26.992 42.109,27.152 42.494,27.378 42.581 C 27.617 42.672,27.763 43.063,27.763 43.609 C 27.763 44.154,27.910 44.545,28.149 44.637 C 28.387 44.728,28.535 45.119,28.535 45.657 C 28.535 46.261,28.653 46.530,28.920 46.530 C 29.177 46.530,29.306 46.787,29.306 47.301 C 29.306 47.815,29.434 48.072,29.692 48.072 C 29.971 48.072,30.077 48.359,30.077 49.108 C 30.077 49.792,30.208 50.195,30.463 50.293 C 30.683 50.377,30.848 50.760,30.848 51.184 C 30.848 51.674,30.980 51.928,31.234 51.928 C 31.502 51.928,31.620 52.197,31.620 52.809 C 31.620 53.294,31.793 53.864,32.005 54.076 C 32.217 54.288,32.391 54.759,32.391 55.123 C 32.391 55.539,32.534 55.784,32.776 55.784 C 33.016 55.784,33.162 56.027,33.162 56.427 C 33.162 58.175,32.335 58.098,51.001 58.098 C 65.706 58.098,67.830 58.146,67.959 58.483 C 68.070 58.772,68.531 58.869,69.786 58.869 C 71.050 58.869,71.465 58.957,71.465 59.227 C 71.465 59.644,72.014 59.897,72.919 59.897 C 73.271 59.897,73.732 60.071,73.944 60.283 C 74.156 60.495,74.553 60.668,74.826 60.668 C 75.098 60.668,75.321 60.775,75.321 60.905 C 75.321 61.035,75.660 61.216,76.075 61.307 C 76.489 61.398,76.966 61.639,77.135 61.842 C 77.303 62.045,77.662 62.211,77.932 62.211 C 78.201 62.211,78.479 62.360,78.549 62.542 C 78.619 62.724,79.193 63.100,79.824 63.377 C 80.455 63.655,80.973 64.026,80.974 64.203 C 80.976 64.380,81.150 64.524,81.362 64.524 C 81.575 64.524,81.748 64.698,81.748 64.910 C 81.748 65.122,81.922 65.296,82.134 65.296 C 82.346 65.296,82.519 65.469,82.519 65.681 C 82.519 65.893,82.635 66.067,82.776 66.067 C 82.918 66.067,83.265 66.298,83.548 66.581 C 83.830 66.864,84.062 67.211,84.062 67.352 C 84.062 67.494,84.235 67.609,84.447 67.609 C 84.659 67.609,84.833 67.783,84.833 67.995 C 84.833 68.207,85.006 68.380,85.219 68.380 C 85.431 68.380,85.604 68.554,85.604 68.766 C 85.604 68.978,85.778 69.152,85.990 69.152 C 86.202 69.152,86.375 69.313,86.375 69.510 C 86.375 69.707,86.549 69.934,86.761 70.016 C 86.973 70.097,87.147 70.457,87.147 70.815 C 87.147 71.222,87.291 71.465,87.532 71.465 C 87.744 71.465,87.918 71.639,87.918 71.851 C 87.918 72.189,89.689 72.237,102.314 72.237 L 116.710 72.237 116.710 71.465 C 116.710 70.951,116.581 70.694,116.324 70.694 C 116.112 70.694,115.938 70.507,115.938 70.279 C 115.938 69.999,115.781 69.904,115.457 69.989 C 115.086 70.086,115.004 70.004,115.101 69.633 C 115.186 69.309,115.091 69.152,114.811 69.152 C 114.583 69.152,114.396 68.978,114.396 68.766 C 114.396 68.554,114.222 68.380,114.010 68.380 C 113.798 68.380,113.625 68.207,113.625 67.995 C 113.625 67.783,113.451 67.609,113.239 67.609 C 113.027 67.609,112.853 67.436,112.853 67.224 C 112.853 67.012,112.692 66.838,112.495 66.838 C 112.298 66.838,112.071 66.665,111.989 66.452 C 111.908 66.240,111.548 66.067,111.191 66.067 C 110.784 66.067,110.540 65.922,110.540 65.681 C 110.540 65.469,110.366 65.296,110.154 65.296 C 109.942 65.296,109.769 65.122,109.769 64.910 C 109.769 64.698,109.595 64.524,109.383 64.524 C 109.171 64.524,108.997 64.351,108.997 64.139 C 108.997 63.927,108.824 63.753,108.612 63.753 C 108.400 63.753,108.226 63.580,108.226 63.368 C 108.226 63.156,108.053 62.982,107.841 62.982 C 107.629 62.982,107.455 62.808,107.455 62.596 C 107.455 62.382,107.227 62.211,106.941 62.211 C 106.655 62.211,106.427 62.039,106.427 61.825 C 106.427 61.585,106.184 61.440,105.784 61.440 C 105.384 61.440,105.141 61.294,105.141 61.054 C 105.141 60.842,104.968 60.668,104.756 60.668 C 104.544 60.668,104.370 60.495,104.370 60.283 C 104.370 60.071,104.197 59.897,103.985 59.897 C 103.772 59.897,103.599 59.724,103.599 59.512 C 103.599 59.299,103.425 59.126,103.213 59.126 C 103.001 59.126,102.828 58.952,102.828 58.740 C 102.828 58.528,102.680 58.355,102.499 58.355 C 102.319 58.355,101.841 57.979,101.438 57.519 C 101.035 57.060,100.662 56.713,100.609 56.748 C 100.232 57.003,99.522 56.723,99.405 56.272 C 99.327 55.975,99.140 55.809,98.989 55.902 C 98.829 56.001,98.715 55.852,98.715 55.542 C 98.715 55.243,98.547 55.013,98.329 55.013 C 98.117 55.013,97.943 54.839,97.943 54.627 C 97.943 54.415,97.770 54.242,97.558 54.242 C 97.346 54.242,97.172 54.068,97.172 53.856 C 97.172 53.644,97.011 53.470,96.814 53.470 C 96.617 53.470,96.387 53.290,96.302 53.069 C 96.217 52.847,96.031 52.739,95.889 52.827 C 95.746 52.915,95.630 52.803,95.630 52.579 C 95.630 52.333,95.326 52.111,94.859 52.018 C 94.434 51.933,94.087 51.705,94.087 51.510 C 94.087 51.316,93.914 51.157,93.702 51.157 C 93.490 51.157,93.316 50.983,93.316 50.771 C 93.316 50.559,93.143 50.386,92.931 50.386 C 92.719 50.386,92.545 50.212,92.545 50.000 C 92.545 49.788,92.371 49.614,92.159 49.614 C 91.947 49.614,91.774 49.441,91.774 49.229 C 91.774 49.017,91.600 48.843,91.388 48.843 C 91.176 48.843,91.003 48.670,91.003 48.458 C 91.003 48.246,90.843 48.072,90.648 48.072 C 90.454 48.072,90.144 47.890,89.959 47.669 C 89.775 47.447,89.414 47.320,89.157 47.387 C 88.825 47.474,88.689 47.367,88.689 47.020 C 88.689 46.750,88.515 46.530,88.303 46.530 C 88.091 46.530,87.918 46.356,87.918 46.144 C 87.918 45.932,87.744 45.758,87.532 45.758 C 87.320 45.758,87.147 45.585,87.147 45.373 C 87.147 45.161,86.973 44.987,86.761 44.987 C 86.549 44.987,86.375 44.814,86.375 44.602 C 86.375 44.389,86.214 44.216,86.017 44.216 C 85.820 44.216,85.593 44.042,85.511 43.830 C 85.430 43.618,85.186 43.445,84.970 43.445 C 84.753 43.445,84.576 43.271,84.576 43.059 C 84.576 42.819,84.333 42.674,83.933 42.674 C 83.533 42.674,83.290 42.528,83.290 42.288 C 83.290 42.076,83.117 41.902,82.905 41.902 C 82.693 41.902,82.519 41.729,82.519 41.517 C 82.519 41.305,82.346 41.131,82.134 41.131 C 81.922 41.131,81.748 40.958,81.748 40.746 C 81.748 40.533,81.587 40.360,81.390 40.360 C 81.193 40.360,80.965 40.186,80.884 39.974 C 80.803 39.762,80.559 39.589,80.342 39.589 C 80.126 39.589,79.949 39.415,79.949 39.203 C 79.949 38.991,79.775 38.817,79.563 38.817 C 79.351 38.817,79.177 38.644,79.177 38.432 C 79.177 38.101,78.537 37.904,77.828 38.016 C 77.722 38.033,77.635 37.896,77.635 37.713 C 77.635 37.530,77.293 37.096,76.875 36.749 C 76.456 36.402,76.109 35.974,76.103 35.797 C 76.097 35.620,75.919 35.476,75.707 35.476 C 75.495 35.476,75.321 35.302,75.321 35.090 C 75.321 34.878,75.160 34.704,74.963 34.704 C 74.766 34.704,74.532 34.514,74.443 34.282 C 74.354 34.050,74.216 33.924,74.137 34.003 C 74.058 34.083,73.771 33.926,73.500 33.655 C 73.229 33.384,72.834 33.162,72.622 33.162 C 72.410 33.162,72.237 32.988,72.237 32.776 C 72.237 32.564,72.063 32.391,71.851 32.391 C 71.639 32.391,71.465 32.217,71.465 32.005 C 71.465 31.793,71.292 31.620,71.080 31.620 C 70.868 31.620,70.694 31.446,70.694 31.234 C 70.694 31.022,70.521 30.848,70.308 30.848 C 70.096 30.848,69.923 30.675,69.923 30.463 C 69.923 30.251,69.814 30.077,69.682 30.077 C 69.549 30.077,69.061 29.730,68.596 29.306 C 68.132 28.882,67.546 28.535,67.295 28.535 C 67.044 28.535,66.838 28.361,66.838 28.149 C 66.838 27.937,66.665 27.763,66.452 27.763 C 66.240 27.763,66.067 27.590,66.067 27.378 C 66.067 27.166,65.893 26.992,65.681 26.992 C 65.469 26.992,65.296 26.819,65.296 26.607 C 65.296 26.395,65.122 26.221,64.910 26.221 C 64.698 26.221,64.524 26.048,64.524 25.835 C 64.524 25.623,64.363 25.450,64.166 25.450 C 63.969 25.450,63.742 25.276,63.660 25.064 C 63.579 24.852,63.348 24.679,63.146 24.679 C 62.945 24.679,62.713 24.505,62.632 24.293 C 62.551 24.081,62.249 23.907,61.962 23.907 C 61.675 23.907,61.440 23.747,61.440 23.552 C 61.440 23.356,61.197 23.133,60.900 23.055 C 60.602 22.977,60.436 22.790,60.529 22.639 C 60.632 22.473,60.446 22.365,60.056 22.365 C 59.703 22.365,59.331 22.231,59.230 22.068 C 59.116 21.884,59.159 21.841,59.343 21.955 C 59.507 22.056,59.640 22.016,59.640 21.866 C 59.640 21.716,59.467 21.594,59.254 21.594 C 59.042 21.594,58.869 21.420,58.869 21.208 C 58.869 20.996,58.695 20.823,58.483 20.823 C 58.271 20.823,58.098 20.649,58.098 20.437 C 58.098 20.225,57.982 20.051,57.841 20.051 C 57.699 20.051,57.343 19.811,57.050 19.517 C 56.756 19.224,56.351 19.047,56.150 19.124 C 55.908 19.217,55.784 19.088,55.784 18.743 C 55.784 18.439,55.670 18.292,55.510 18.391 C 55.359 18.484,55.172 18.319,55.095 18.024 C 55.018 17.728,54.844 17.555,54.709 17.638 C 54.574 17.721,54.403 17.555,54.328 17.267 C 54.245 16.952,54.048 16.800,53.831 16.883 C 53.633 16.959,53.470 16.868,53.470 16.679 C 53.470 16.220,51.704 14.671,50.971 14.487 C 50.649 14.406,50.386 14.179,50.386 13.982 C 50.386 13.786,50.270 13.625,50.129 13.625 C 49.795 13.625,48.843 12.673,48.843 12.339 C 48.843 12.198,48.670 12.082,48.458 12.082 C 48.246 12.082,48.072 11.909,48.072 11.697 C 48.072 11.485,47.911 11.311,47.714 11.311 C 47.517 11.311,47.289 11.138,47.208 10.925 C 47.126 10.713,46.895 10.540,46.694 10.540 C 46.492 10.540,46.261 10.366,46.180 10.154 C 46.098 9.942,45.797 9.769,45.509 9.769 C 45.217 9.769,44.987 9.599,44.987 9.383 C 44.987 9.171,44.814 8.997,44.602 8.997 C 44.389 8.997,44.216 8.824,44.216 8.612 C 44.216 8.400,44.042 8.226,43.830 8.226 C 43.618 8.226,43.445 8.053,43.445 7.841 C 43.445 7.629,43.284 7.455,43.087 7.455 C 42.890 7.455,42.662 7.281,42.581 7.069 C 42.499 6.857,42.255 6.684,42.039 6.684 C 41.822 6.684,41.645 6.510,41.645 6.298 C 41.645 6.086,41.484 5.913,41.287 5.913 C 41.090 5.913,40.862 5.738,40.780 5.525 C 40.698 5.311,40.541 5.151,40.431 5.169 C 39.807 5.272,39.332 5.093,39.332 4.756 C 39.332 4.544,39.158 4.370,38.946 4.370 C 38.734 4.370,38.560 4.197,38.560 3.985 C 38.560 3.772,38.387 3.599,38.175 3.599 C 37.963 3.599,37.789 3.425,37.789 3.213 C 37.789 3.001,37.616 2.828,37.404 2.828 C 37.192 2.828,37.018 2.654,37.018 2.442 C 37.018 2.230,36.844 2.057,36.632 2.057 C 36.420 2.057,36.247 1.883,36.247 1.671 C 36.247 1.459,36.086 1.285,35.889 1.285 C 35.692 1.285,35.464 1.112,35.383 0.900 C 35.301 0.688,34.942 0.514,34.584 0.514 C 34.226 0.514,33.933 0.398,33.933 0.257 C 33.933 0.089,29.734 0.000,21.851 0.000 C 10.168 0.000,9.769 0.016,9.769 0.487 M-0.000 85.990 L -0.000 101.293 7.519 101.225 L 15.039 101.157 15.039 85.990 L 15.039 70.823 7.519 70.754 L 0.000 70.686 -0.000 85.990 M27.882 71.015 C 27.814 71.192,27.789 78.046,27.825 86.247 L 27.892 101.157 47.558 101.224 C 64.270 101.280,67.264 101.236,67.491 100.926 C 67.638 100.726,68.217 100.529,68.777 100.488 C 69.336 100.447,70.198 100.205,70.690 99.950 C 71.183 99.695,71.733 99.486,71.911 99.486 C 72.090 99.486,72.237 99.312,72.237 99.100 C 72.237 98.888,72.410 98.715,72.622 98.715 C 72.834 98.715,73.008 98.541,73.008 98.329 C 73.008 98.094,73.247 97.943,73.623 97.943 C 73.961 97.943,74.305 97.770,74.386 97.558 C 74.467 97.346,74.711 97.172,74.928 97.172 C 75.144 97.172,75.321 97.011,75.321 96.814 C 75.321 96.617,75.495 96.389,75.707 96.308 C 75.919 96.227,76.093 95.867,76.093 95.509 C 76.093 95.102,76.237 94.859,76.478 94.859 C 76.690 94.859,76.864 94.685,76.864 94.473 C 76.864 94.261,77.037 94.087,77.249 94.087 C 77.506 94.087,77.635 93.830,77.635 93.316 C 77.635 92.802,77.763 92.545,78.021 92.545 C 78.306 92.545,78.406 92.245,78.406 91.388 C 78.406 90.531,78.506 90.231,78.792 90.231 C 79.118 90.231,79.177 89.602,79.177 86.110 C 79.177 82.684,79.112 81.964,78.792 81.841 C 78.540 81.744,78.406 81.344,78.406 80.684 C 78.406 80.025,78.273 79.624,78.021 79.527 C 77.808 79.446,77.635 79.099,77.635 78.756 C 77.635 78.413,77.473 78.071,77.275 77.995 C 77.077 77.919,76.853 77.621,76.778 77.334 C 76.703 77.047,76.518 76.888,76.367 76.982 C 76.205 77.082,76.093 76.924,76.093 76.594 C 76.093 76.205,75.977 76.082,75.707 76.186 C 75.472 76.276,75.321 76.186,75.321 75.956 C 75.321 75.748,75.148 75.578,74.936 75.578 C 74.722 75.578,74.550 75.350,74.550 75.064 C 74.550 74.779,74.379 74.550,74.165 74.550 C 73.952 74.550,73.779 74.377,73.779 74.165 C 73.779 73.952,73.605 73.779,73.393 73.779 C 73.181 73.779,73.008 73.617,73.008 73.420 C 73.008 73.176,72.732 73.073,72.148 73.101 C 71.444 73.134,71.310 73.059,71.407 72.689 C 71.501 72.331,71.364 72.237,70.752 72.237 C 70.301 72.237,69.916 72.075,69.830 71.851 C 69.724 71.574,69.290 71.465,68.291 71.465 C 67.369 71.465,66.793 71.335,66.581 71.080 C 66.143 70.552,28.083 70.489,27.882 71.015 M14.846 92.866 C 14.806 96.719,14.773 93.567,14.773 85.861 C 14.773 78.156,14.806 75.003,14.846 78.856 C 14.886 82.709,14.886 89.013,14.846 92.866 M91.774 88.689 C 91.774 91.260,91.710 91.774,91.388 91.774 C 91.102 91.774,91.003 92.075,91.003 92.939 C 91.003 93.737,90.881 94.150,90.617 94.252 C 90.368 94.347,90.231 94.745,90.231 95.373 C 90.231 96.001,90.095 96.399,89.846 96.494 C 89.625 96.579,89.460 96.963,89.460 97.394 C 89.460 97.825,89.296 98.209,89.075 98.293 C 88.862 98.375,88.689 98.734,88.689 99.092 C 88.689 99.499,88.545 99.743,88.303 99.743 C 88.046 99.743,87.918 100.000,87.918 100.514 C 87.918 101.028,87.789 101.285,87.532 101.285 C 87.320 101.285,87.147 101.459,87.147 101.671 C 87.147 101.883,86.973 102.057,86.761 102.057 C 86.549 102.057,86.375 102.230,86.375 102.442 C 86.375 102.654,86.266 102.828,86.132 102.828 C 85.892 102.828,85.258 103.817,84.938 104.692 C 84.847 104.939,84.613 105.141,84.417 105.141 C 84.222 105.141,84.062 105.315,84.062 105.527 C 84.062 105.739,83.888 105.913,83.676 105.913 C 83.464 105.913,83.290 106.086,83.290 106.298 C 83.290 106.510,83.131 106.684,82.936 106.684 C 82.742 106.684,82.438 106.857,82.262 107.069 C 82.086 107.281,81.725 107.455,81.460 107.455 C 81.194 107.455,80.977 107.629,80.977 107.841 C 80.977 108.053,80.803 108.226,80.591 108.226 C 80.379 108.226,80.206 108.400,80.206 108.612 C 80.206 108.824,79.981 108.997,79.707 108.997 C 79.432 108.997,79.132 109.120,79.039 109.270 C 78.946 109.420,78.585 109.652,78.237 109.784 C 77.889 109.916,77.676 110.141,77.763 110.282 C 77.856 110.433,77.593 110.540,77.128 110.540 C 76.659 110.540,76.273 110.698,76.186 110.925 C 76.104 111.138,75.766 111.311,75.435 111.311 C 75.104 111.311,74.739 111.479,74.624 111.685 C 74.509 111.890,73.969 112.088,73.425 112.125 C 72.881 112.161,72.378 112.340,72.309 112.522 C 72.230 112.726,71.721 112.855,70.988 112.857 C 69.898 112.861,68.669 113.270,69.280 113.425 C 69.422 113.461,61.729 113.550,52.185 113.622 L 34.833 113.753 34.764 132.455 L 34.695 151.157 139.814 151.157 C 233.015 151.157,244.949 151.201,245.080 151.542 C 245.196 151.843,245.709 151.928,247.421 151.928 C 249.199 151.928,249.614 152.001,249.614 152.314 C 249.614 152.614,249.957 152.699,251.157 152.699 C 252.356 152.699,252.699 152.785,252.699 153.085 C 252.699 153.371,253.000 153.470,253.864 153.470 C 254.662 153.470,255.076 153.592,255.177 153.856 C 255.274 154.108,255.674 154.242,256.334 154.242 C 256.993 154.242,257.394 154.375,257.491 154.627 C 257.591 154.889,258.001 155.013,258.768 155.013 C 259.600 155.013,259.897 155.114,259.897 155.398 C 259.897 155.656,260.154 155.784,260.668 155.784 C 261.183 155.784,261.440 155.913,261.440 156.170 C 261.440 156.427,261.697 156.555,262.211 156.555 C 262.725 156.555,262.982 156.684,262.982 156.941 C 262.982 157.194,263.236 157.326,263.723 157.326 C 264.248 157.326,264.504 157.476,264.599 157.841 C 264.680 158.151,264.950 158.355,265.280 158.355 C 265.580 158.355,265.892 158.528,265.974 158.740 C 266.055 158.952,266.283 159.126,266.480 159.126 C 266.677 159.126,266.838 159.232,266.838 159.363 C 266.838 159.493,267.185 159.675,267.609 159.769 C 268.033 159.862,268.380 160.102,268.380 160.303 C 268.380 160.504,268.504 160.668,268.656 160.668 C 268.807 160.668,269.105 160.842,269.317 161.054 C 269.529 161.266,269.926 161.440,270.198 161.440 C 270.471 161.440,270.694 161.613,270.694 161.825 C 270.694 162.037,270.839 162.216,271.015 162.222 C 271.192 162.228,271.621 162.575,271.967 162.993 C 272.314 163.411,272.748 163.753,272.931 163.753 C 273.115 163.753,273.265 163.867,273.265 164.005 C 273.265 164.144,273.554 164.330,273.907 164.419 C 274.261 164.508,274.550 164.741,274.550 164.938 C 274.550 165.135,274.724 165.296,274.936 165.296 C 275.148 165.296,275.321 165.469,275.321 165.681 C 275.321 165.893,275.495 166.067,275.707 166.067 C 275.919 166.067,276.093 166.227,276.093 166.422 C 276.093 166.618,276.336 166.842,276.633 166.919 C 276.930 166.997,277.104 167.171,277.021 167.306 C 276.938 167.440,277.111 167.614,277.407 167.691 C 277.702 167.769,277.867 167.955,277.774 168.106 C 277.675 168.267,277.824 168.380,278.134 168.380 C 278.433 168.380,278.663 168.548,278.663 168.766 C 278.663 168.978,278.844 169.152,279.064 169.152 C 279.284 169.152,279.403 169.252,279.327 169.374 C 279.251 169.497,279.418 169.804,279.698 170.057 C 279.977 170.310,280.206 170.730,280.206 170.991 C 280.206 171.252,280.379 171.465,280.591 171.465 C 280.803 171.465,280.977 171.639,280.977 171.851 C 280.977 172.190,283.448 172.237,301.671 172.237 L 322.365 172.237 322.365 156.864 C 322.365 145.894,322.447 141.409,322.652 141.204 C 323.003 140.853,323.585 139.875,323.805 139.267 C 323.894 139.020,324.114 138.817,324.293 138.817 C 324.472 138.817,324.679 138.586,324.753 138.303 C 324.844 137.956,325.104 137.789,325.554 137.789 C 325.976 137.789,326.221 137.647,326.221 137.404 C 326.221 137.064,328.949 137.018,349.229 137.018 L 372.237 137.018 372.237 129.721 C 372.237 122.525,372.229 122.423,371.696 122.284 C 371.399 122.206,371.233 122.019,371.326 121.868 C 371.425 121.708,371.276 121.594,370.966 121.594 C 370.675 121.594,370.437 121.471,370.437 121.322 C 370.437 121.172,370.321 121.121,370.180 121.208 C 370.039 121.296,369.923 121.245,369.923 121.095 C 369.923 120.905,362.709 120.823,346.144 120.823 L 322.365 120.823 322.365 114.524 L 322.365 108.226 338.689 108.226 L 355.013 108.226 355.013 107.455 C 355.013 106.941,354.884 106.684,354.627 106.684 C 354.415 106.684,354.242 106.510,354.242 106.298 C 354.242 106.086,354.068 105.913,353.856 105.913 C 353.644 105.913,353.470 105.739,353.470 105.527 C 353.470 105.315,353.297 105.141,353.085 105.141 C 352.873 105.141,352.699 104.968,352.699 104.756 C 352.699 104.544,352.526 104.370,352.314 104.370 C 352.102 104.370,351.928 104.197,351.928 103.985 C 351.928 103.772,351.754 103.599,351.542 103.599 C 351.330 103.599,351.157 103.425,351.157 103.213 C 351.157 103.001,350.983 102.828,350.771 102.828 C 350.559 102.828,350.386 102.654,350.386 102.442 C 350.386 102.230,350.212 102.057,350.000 102.057 C 349.788 102.057,349.614 101.883,349.614 101.671 C 349.614 101.459,349.441 101.285,349.229 101.285 C 349.017 101.285,348.843 101.112,348.843 100.900 C 348.843 100.688,348.682 100.514,348.485 100.514 C 348.288 100.514,348.060 100.341,347.979 100.129 C 347.898 99.916,347.538 99.743,347.180 99.743 C 346.773 99.743,346.530 99.599,346.530 99.357 C 346.530 99.145,346.356 98.972,346.144 98.972 C 345.932 98.972,345.756 98.827,345.754 98.650 C 345.746 98.046,344.168 97.150,343.733 97.502 C 343.491 97.698,343.411 97.707,343.519 97.526 C 343.789 97.075,342.282 95.646,341.697 95.799 C 341.349 95.890,341.160 95.770,341.062 95.393 C 340.985 95.099,340.750 94.859,340.540 94.859 C 340.330 94.859,340.091 94.685,340.010 94.473 C 339.928 94.261,339.569 94.087,339.211 94.087 C 338.804 94.087,338.560 93.943,338.560 93.702 C 338.560 93.445,338.303 93.316,337.789 93.316 C 337.275 93.316,337.018 93.188,337.018 92.931 C 337.018 92.674,336.761 92.545,336.247 92.545 C 335.733 92.545,335.476 92.416,335.476 92.159 C 335.476 91.902,335.219 91.774,334.704 91.774 C 334.190 91.774,333.933 91.645,333.933 91.388 C 333.933 91.131,333.676 91.003,333.162 91.003 C 332.648 91.003,332.391 90.874,332.391 90.617 C 332.391 90.374,332.146 90.231,331.730 90.231 C 331.366 90.231,330.895 90.058,330.683 89.846 C 330.471 89.634,329.901 89.460,329.416 89.460 C 328.804 89.460,328.535 89.342,328.535 89.075 C 328.535 88.790,328.238 88.689,327.405 88.689 C 326.639 88.689,326.229 88.565,326.128 88.303 C 326.027 88.041,325.617 87.918,324.843 87.918 C 324.069 87.918,323.658 87.794,323.557 87.532 C 323.453 87.260,323.028 87.147,322.107 87.147 C 321.352 87.147,320.544 86.976,320.183 86.739 C 319.726 86.440,319.086 86.355,317.763 86.418 C 316.236 86.491,315.946 86.437,315.849 86.064 C 315.747 85.670,315.260 85.624,311.209 85.618 L 306.684 85.611 306.684 100.362 C 306.684 113.236,306.635 115.131,306.298 115.260 C 306.046 115.357,305.913 115.757,305.913 116.417 C 305.913 117.076,305.779 117.477,305.527 117.574 C 305.315 117.655,305.141 117.899,305.141 118.115 C 305.141 118.332,304.968 118.509,304.756 118.509 C 304.544 118.509,304.370 118.683,304.370 118.895 C 304.370 119.107,304.197 119.280,303.985 119.280 C 303.772 119.280,303.599 119.454,303.599 119.666 C 303.599 119.907,303.355 120.051,302.948 120.051 C 302.590 120.051,302.231 120.225,302.150 120.437 C 301.924 121.024,112.082 121.024,112.082 120.437 C 112.082 120.180,111.825 120.051,111.311 120.051 C 110.797 120.051,110.540 119.923,110.540 119.666 C 110.540 119.454,110.366 119.280,110.154 119.280 C 109.942 119.280,109.769 119.107,109.769 118.895 C 109.769 118.683,109.595 118.509,109.383 118.509 C 109.126 118.509,108.997 118.252,108.997 117.738 C 108.997 117.224,108.869 116.967,108.612 116.967 C 108.273 116.967,108.226 115.053,108.226 101.285 L 108.226 85.604 100.000 85.604 L 91.774 85.604 91.774 88.689 M120.823 96.915 L 120.823 108.226 207.069 108.226 L 293.316 108.226 293.316 96.915 L 293.316 85.604 207.069 85.604 L 120.823 85.604 120.823 96.915 M0.000 128.922 C 0.000 143.983,-0.060 143.422,1.429 142.296 C 1.724 142.073,2.509 141.915,3.349 141.910 C 4.130 141.906,4.998 141.743,5.277 141.549 C 5.556 141.355,6.573 141.147,7.537 141.086 C 8.501 141.026,9.369 140.852,9.465 140.700 C 9.561 140.548,10.429 140.375,11.393 140.314 C 12.357 140.254,13.227 140.073,13.326 139.912 C 13.426 139.751,14.177 139.593,14.995 139.560 C 15.813 139.527,16.773 139.349,17.128 139.164 C 17.483 138.980,18.402 138.809,19.170 138.784 C 19.937 138.759,20.566 138.633,20.566 138.506 C 20.566 138.378,20.682 138.345,20.824 138.433 C 20.967 138.521,21.153 138.412,21.238 138.191 C 21.322 137.970,21.611 137.789,21.878 137.789 C 22.346 137.789,22.365 137.451,22.365 128.920 C 22.365 120.223,22.355 120.051,21.851 120.051 C 21.565 120.051,21.337 119.880,21.337 119.666 C 21.337 119.357,20.951 119.280,19.409 119.280 C 17.824 119.280,17.481 119.208,17.481 118.874 C 17.481 118.574,17.264 118.487,16.645 118.539 C 15.641 118.623,13.880 118.286,13.423 117.922 C 13.241 117.778,12.296 117.653,11.321 117.644 C 10.347 117.635,9.606 117.536,9.674 117.425 C 9.889 117.078,8.677 116.786,7.134 116.813 C 6.109 116.830,5.655 116.739,5.655 116.517 C 5.656 116.191,5.224 116.124,3.021 116.103 C 2.197 116.095,1.799 115.983,1.799 115.758 C 1.799 115.574,1.655 115.416,1.478 115.405 C 1.301 115.395,0.897 115.337,0.578 115.278 L 0.000 115.170 0.000 128.922 M384.833 137.886 C 384.833 143.829,384.773 144.974,384.447 145.244 C 384.235 145.420,384.062 145.781,384.062 146.047 C 384.062 146.312,383.888 146.530,383.676 146.530 C 383.464 146.530,383.290 146.641,383.290 146.778 C 383.290 147.302,381.461 148.843,380.840 148.843 C 380.447 148.843,380.206 148.990,380.206 149.229 C 380.206 149.569,377.506 149.614,357.455 149.614 L 334.704 149.614 334.704 160.925 L 334.704 172.237 360.034 172.237 C 382.312 172.237,385.381 172.190,385.511 171.851 C 385.612 171.589,386.022 171.465,386.788 171.465 C 387.621 171.465,387.918 171.364,387.918 171.080 C 387.918 170.823,388.175 170.694,388.689 170.694 C 389.203 170.694,389.460 170.566,389.460 170.308 C 389.460 170.051,389.717 169.923,390.231 169.923 C 390.719 169.923,391.003 169.791,391.003 169.565 C 391.003 169.368,391.292 169.135,391.645 169.046 C 391.999 168.957,392.288 168.771,392.288 168.633 C 392.288 168.494,392.519 168.380,392.802 168.380 C 393.142 168.380,393.316 168.209,393.316 167.874 C 393.316 167.530,393.440 167.416,393.702 167.516 C 393.946 167.610,394.087 167.513,394.087 167.251 C 394.087 167.024,394.261 166.838,394.473 166.838 C 394.685 166.838,394.859 166.722,394.859 166.581 C 394.859 166.440,395.090 166.093,395.373 165.810 C 395.656 165.527,396.003 165.296,396.144 165.296 C 396.285 165.296,396.401 165.064,396.401 164.781 C 396.401 164.496,396.572 164.267,396.787 164.267 C 397.027 164.267,397.172 164.025,397.172 163.625 C 397.172 163.225,397.318 162.982,397.558 162.982 C 397.815 162.982,397.943 162.725,397.943 162.211 C 397.943 161.672,398.069 161.440,398.359 161.440 C 398.653 161.440,398.734 161.284,398.635 160.907 C 398.546 160.567,398.676 160.220,398.991 159.950 C 399.336 159.654,399.486 159.194,399.486 158.426 C 399.486 157.821,399.602 157.326,399.743 157.326 C 399.907 157.326,400.000 155.227,400.000 151.542 C 400.000 147.858,399.907 145.758,399.743 145.758 C 399.602 145.758,399.486 145.238,399.486 144.602 C 399.486 143.745,399.386 143.445,399.100 143.445 C 398.843 143.445,398.715 143.188,398.715 142.674 C 398.715 142.159,398.586 141.902,398.329 141.902 C 398.072 141.902,397.943 141.645,397.943 141.131 C 397.943 140.617,397.815 140.360,397.558 140.360 C 397.301 140.360,397.172 140.103,397.172 139.589 C 397.172 139.075,397.044 138.817,396.787 138.817 C 396.575 138.817,396.401 138.644,396.401 138.432 C 396.401 138.220,396.228 138.046,396.015 138.046 C 395.803 138.046,395.630 137.869,395.630 137.653 C 395.630 137.436,395.456 137.192,395.244 137.111 C 395.032 137.030,394.859 136.805,394.859 136.613 C 394.859 136.407,394.699 136.324,394.473 136.411 C 394.201 136.515,394.087 136.390,394.087 135.986 C 394.087 135.519,394.019 135.469,393.722 135.716 C 393.425 135.962,393.339 135.907,393.266 135.426 C 393.216 135.100,393.034 134.862,392.860 134.897 C 392.687 134.933,392.545 134.785,392.545 134.569 C 392.545 134.339,392.226 134.114,391.774 134.023 C 391.350 133.938,391.003 133.710,391.003 133.515 C 391.003 133.321,390.771 133.162,390.488 133.162 C 390.206 133.162,389.974 133.048,389.974 132.910 C 389.974 132.771,389.693 132.587,389.350 132.501 C 389.007 132.415,388.664 132.181,388.587 131.982 C 388.511 131.783,388.155 131.620,387.797 131.620 C 387.390 131.620,387.147 131.475,387.147 131.234 C 387.147 130.948,386.847 130.848,385.990 130.848 L 384.833 130.848 384.833 137.886 M34.765 171.530 L 34.833 179.306 49.100 179.372 C 61.122 179.428,63.495 179.498,64.178 179.822 C 64.623 180.033,65.392 180.206,65.885 180.206 C 66.446 180.206,66.839 180.350,66.931 180.591 C 67.012 180.803,67.372 180.977,67.730 180.977 C 68.137 180.977,68.380 181.121,68.380 181.362 C 68.380 181.575,68.554 181.748,68.766 181.748 C 68.982 181.748,69.152 181.977,69.152 182.270 C 69.152 182.557,69.325 182.859,69.537 182.940 C 69.758 183.025,69.923 183.409,69.923 183.840 C 69.923 184.271,70.087 184.655,70.308 184.740 C 70.649 184.870,70.694 189.135,70.694 220.979 L 70.694 257.069 78.535 257.069 C 83.590 257.069,86.375 256.978,86.375 256.812 C 86.375 256.671,86.722 256.555,87.147 256.555 C 87.661 256.555,87.918 256.427,87.918 256.170 C 87.918 255.913,88.175 255.784,88.689 255.784 C 89.203 255.784,89.460 255.656,89.460 255.398 C 89.460 255.157,89.704 255.013,90.111 255.013 C 90.469 255.013,90.828 254.839,90.910 254.627 C 90.991 254.415,91.219 254.242,91.416 254.242 C 91.613 254.242,91.774 254.068,91.774 253.856 C 91.774 253.599,92.031 253.470,92.545 253.470 C 93.059 253.470,93.316 253.342,93.316 253.085 C 93.316 252.828,93.573 252.699,94.087 252.699 C 94.602 252.699,94.859 252.571,94.859 252.314 C 94.859 252.072,95.102 251.928,95.509 251.928 C 95.867 251.928,96.227 251.754,96.308 251.542 C 96.389 251.330,96.617 251.157,96.814 251.157 C 97.011 251.157,97.172 250.983,97.172 250.771 C 97.172 250.553,97.402 250.386,97.702 250.386 C 98.057 250.386,98.167 250.280,98.038 250.064 C 97.907 249.846,97.984 249.856,98.280 250.096 C 98.655 250.400,98.715 250.391,98.715 250.031 C 98.715 249.743,98.944 249.614,99.458 249.614 C 99.882 249.614,100.266 249.449,100.350 249.229 C 100.431 249.017,100.737 248.843,101.028 248.843 C 101.320 248.843,101.625 248.670,101.707 248.458 C 101.788 248.246,102.073 248.072,102.341 248.072 C 102.609 248.072,102.828 247.898,102.828 247.686 C 102.828 247.429,103.085 247.301,103.599 247.301 C 104.113 247.301,104.370 247.172,104.370 246.915 C 104.370 246.674,104.614 246.530,105.021 246.530 C 105.379 246.530,105.738 246.356,105.820 246.144 C 105.901 245.932,106.161 245.758,106.397 245.758 C 106.633 245.758,107.206 245.411,107.671 244.987 C 108.135 244.563,108.797 244.216,109.142 244.216 C 109.528 244.216,109.769 244.068,109.769 243.830 C 109.769 243.589,110.012 243.445,110.419 243.445 C 110.777 243.445,111.137 243.271,111.218 243.059 C 111.299 242.847,111.581 242.674,111.844 242.674 C 112.107 242.674,112.677 242.326,113.111 241.902 C 113.556 241.467,114.176 241.131,114.533 241.131 C 114.925 241.131,115.167 240.984,115.167 240.746 C 115.167 240.516,115.404 240.360,115.753 240.360 C 116.075 240.360,116.536 240.129,116.778 239.846 C 117.021 239.563,117.451 239.332,117.735 239.332 C 118.019 239.332,118.252 239.216,118.252 239.075 C 118.252 238.933,118.425 238.817,118.638 238.817 C 118.850 238.817,119.023 238.644,119.023 238.432 C 119.023 238.220,119.226 238.033,119.473 238.017 C 119.720 238.000,120.096 237.971,120.308 237.952 C 120.521 237.933,120.678 237.715,120.658 237.468 C 120.632 237.139,120.815 237.018,121.338 237.018 C 121.736 237.018,122.118 236.847,122.201 236.632 C 122.282 236.420,122.642 236.247,123.000 236.247 C 123.407 236.247,123.650 236.102,123.650 235.861 C 123.650 235.647,123.879 235.476,124.165 235.476 C 124.450 235.476,124.679 235.304,124.679 235.090 C 124.679 234.833,124.936 234.704,125.450 234.704 C 125.964 234.704,126.221 234.576,126.221 234.319 C 126.221 234.062,126.478 233.933,126.992 233.933 C 127.506 233.933,127.763 233.805,127.763 233.548 C 127.763 233.306,128.007 233.162,128.414 233.162 C 128.772 233.162,129.132 232.988,129.213 232.776 C 129.294 232.564,129.522 232.391,129.719 232.391 C 129.916 232.391,130.077 232.217,130.077 232.005 C 130.077 231.748,130.334 231.620,130.848 231.620 C 131.362 231.620,131.620 231.491,131.620 231.234 C 131.620 230.977,131.877 230.848,132.391 230.848 C 132.971 230.848,133.162 230.730,133.162 230.370 C 133.162 229.999,133.305 229.919,133.801 230.014 C 134.234 230.096,134.492 230.002,134.600 229.721 C 134.688 229.493,134.921 229.306,135.117 229.306 C 135.314 229.306,135.476 229.132,135.476 228.920 C 135.476 228.663,135.733 228.535,136.247 228.535 C 136.761 228.535,137.018 228.406,137.018 228.149 C 137.018 227.892,137.275 227.763,137.789 227.763 C 138.303 227.763,138.560 227.635,138.560 227.378 C 138.560 227.137,138.804 226.992,139.211 226.992 C 139.569 226.992,139.928 226.819,140.010 226.607 C 140.091 226.395,140.311 226.221,140.499 226.221 C 140.686 226.221,140.908 226.006,140.991 225.744 C 141.101 225.398,141.318 225.300,141.776 225.387 C 142.203 225.469,142.462 225.373,142.569 225.094 C 142.657 224.865,143.009 224.679,143.352 224.679 C 143.695 224.679,144.042 224.505,144.123 224.293 C 144.204 224.081,144.494 223.907,144.766 223.907 C 145.038 223.907,145.327 223.734,145.408 223.522 C 145.490 223.310,145.775 223.136,146.043 223.136 C 146.311 223.136,146.530 222.963,146.530 222.751 C 146.530 222.494,146.787 222.365,147.301 222.365 C 147.815 222.365,148.072 222.237,148.072 221.979 C 148.072 221.742,148.313 221.594,148.702 221.594 C 149.048 221.594,149.424 221.447,149.537 221.268 C 149.650 221.090,150.233 220.714,150.833 220.433 C 151.432 220.152,151.923 219.778,151.925 219.602 C 151.928 219.318,152.440 219.156,153.028 219.252 C 153.138 219.270,153.295 219.110,153.377 218.897 C 153.458 218.684,153.727 218.509,153.973 218.509 C 154.219 218.509,154.687 218.278,155.013 217.995 C 155.339 217.712,155.819 217.481,156.080 217.481 C 156.342 217.481,156.555 217.307,156.555 217.095 C 156.555 216.883,156.729 216.710,156.941 216.710 C 157.153 216.710,157.326 216.536,157.326 216.324 C 157.326 216.067,157.584 215.938,158.098 215.938 C 158.612 215.938,158.869 215.810,158.869 215.553 C 158.869 215.299,159.123 215.167,159.613 215.167 C 160.037 215.167,160.420 215.001,160.504 214.781 C 160.586 214.569,160.945 214.396,161.303 214.396 C 161.710 214.396,161.954 214.251,161.954 214.010 C 161.954 213.796,162.182 213.625,162.468 213.625 C 162.753 213.625,162.982 213.453,162.982 213.239 C 162.982 212.985,163.236 212.853,163.723 212.853 C 164.233 212.853,164.504 212.702,164.591 212.369 C 164.687 212.003,164.883 211.916,165.392 212.013 C 165.895 212.109,166.067 212.037,166.067 211.727 C 166.067 211.460,166.287 211.311,166.682 211.311 C 167.020 211.311,167.364 211.138,167.445 210.925 C 167.527 210.713,167.770 210.540,167.987 210.540 C 168.203 210.540,168.380 210.366,168.380 210.154 C 168.380 209.897,168.638 209.769,169.152 209.769 C 169.666 209.769,169.923 209.640,169.923 209.383 C 169.923 209.126,170.180 208.997,170.694 208.997 C 171.208 208.997,171.465 208.869,171.465 208.612 C 171.465 208.371,171.709 208.226,172.116 208.226 C 172.474 208.226,172.833 208.053,172.915 207.841 C 172.996 207.629,173.224 207.455,173.421 207.455 C 173.618 207.455,173.779 207.281,173.779 207.069 C 173.779 206.816,174.033 206.684,174.520 206.684 C 175.030 206.684,175.301 206.533,175.388 206.199 C 175.484 205.833,175.680 205.746,176.189 205.844 C 176.692 205.940,176.864 205.867,176.864 205.557 C 176.864 205.284,177.087 205.141,177.514 205.141 C 177.872 205.141,178.232 204.968,178.313 204.756 C 178.395 204.544,178.622 204.370,178.819 204.370 C 179.016 204.370,179.177 204.197,179.177 203.985 C 179.177 203.727,179.435 203.599,179.957 203.599 C 180.412 203.599,180.797 203.439,180.884 203.213 C 180.965 203.001,181.296 202.828,181.620 202.828 C 181.943 202.828,182.274 202.654,182.355 202.442 C 182.437 202.230,182.800 202.057,183.162 202.057 C 183.524 202.057,183.887 201.883,183.969 201.671 C 184.059 201.435,184.449 201.285,184.971 201.285 C 185.440 201.285,185.998 201.112,186.210 200.900 C 186.422 200.688,187.012 200.514,187.522 200.514 C 188.108 200.514,188.502 200.373,188.596 200.129 C 188.689 199.886,189.083 199.743,189.660 199.743 C 190.164 199.743,190.759 199.582,190.982 199.386 C 191.206 199.190,191.957 198.962,192.653 198.880 C 193.349 198.798,193.985 198.625,194.067 198.494 C 194.149 198.364,194.679 198.191,195.244 198.110 C 195.810 198.029,196.301 197.958,196.337 197.953 C 196.372 197.948,196.401 197.770,196.401 197.558 C 196.401 197.272,196.701 197.172,197.558 197.172 C 198.415 197.172,198.715 197.072,198.715 196.787 C 198.715 196.496,199.026 196.401,199.972 196.401 C 200.853 196.401,201.275 196.285,201.378 196.015 C 201.483 195.743,201.907 195.630,202.820 195.630 C 203.798 195.630,204.113 195.536,204.113 195.244 C 204.113 194.953,204.427 194.859,205.398 194.859 C 206.370 194.859,206.684 194.764,206.684 194.473 C 206.684 194.187,206.984 194.087,207.841 194.087 C 208.698 194.087,208.997 193.987,208.997 193.702 C 208.997 193.417,209.295 193.316,210.136 193.316 C 210.805 193.316,211.433 193.157,211.660 192.931 C 211.890 192.700,212.519 192.545,213.221 192.545 C 214.094 192.545,214.396 192.446,214.396 192.159 C 214.396 191.874,214.696 191.774,215.553 191.774 C 216.410 191.774,216.710 191.674,216.710 191.388 C 216.710 191.103,217.009 191.003,217.866 191.003 C 218.723 191.003,219.023 190.903,219.023 190.617 C 219.023 190.327,219.334 190.231,220.277 190.231 C 221.078 190.231,221.646 190.092,221.851 189.846 C 222.044 189.613,222.607 189.460,223.269 189.460 C 224.007 189.460,224.415 189.334,224.515 189.075 C 224.612 188.819,225.016 188.689,225.707 188.689 C 226.398 188.689,226.801 188.559,226.899 188.303 C 227.000 188.042,227.410 187.918,228.177 187.918 C 229.009 187.918,229.306 187.816,229.306 187.532 C 229.306 187.250,229.600 187.145,230.398 187.143 C 231.552 187.138,232.292 186.839,232.062 186.468 C 231.987 186.346,232.492 186.287,233.185 186.336 C 234.157 186.404,234.480 186.331,234.602 186.014 C 234.713 185.725,235.092 185.604,235.889 185.604 C 236.721 185.604,237.018 185.503,237.018 185.219 C 237.018 184.933,237.318 184.833,238.175 184.833 C 239.032 184.833,239.332 184.733,239.332 184.447 C 239.332 184.162,239.632 184.062,240.488 184.062 C 241.247 184.062,241.800 183.907,242.096 183.612 C 242.378 183.330,242.906 183.172,243.509 183.189 C 244.039 183.203,244.603 183.058,244.761 182.867 C 244.920 182.676,245.502 182.519,246.055 182.519 C 246.711 182.519,247.111 182.385,247.208 182.134 C 247.305 181.882,247.705 181.748,248.365 181.748 C 249.024 181.748,249.425 181.615,249.521 181.362 C 249.621 181.103,250.029 180.977,250.767 180.977 C 251.384 180.977,251.993 180.822,252.158 180.624 C 252.319 180.430,252.994 180.210,253.659 180.135 C 254.324 180.060,254.910 179.872,254.962 179.717 C 255.013 179.562,255.443 179.434,255.916 179.434 C 256.389 179.434,256.945 179.265,257.151 179.059 C 257.358 178.852,257.962 178.654,258.493 178.618 C 259.170 178.573,259.496 178.415,259.580 178.094 C 259.674 177.734,259.965 177.635,260.924 177.635 C 261.698 177.635,262.265 177.493,262.468 177.249 C 262.664 177.013,263.227 176.864,263.921 176.864 C 264.692 176.864,265.102 176.740,265.203 176.478 C 265.287 176.258,265.670 176.093,266.094 176.093 C 266.745 176.093,266.838 175.999,266.838 175.340 C 266.838 174.537,266.267 173.779,265.663 173.779 C 265.461 173.779,265.296 173.605,265.296 173.393 C 265.296 173.181,265.122 173.008,264.910 173.008 C 264.698 173.008,264.524 172.834,264.524 172.622 C 264.524 172.410,264.363 172.237,264.166 172.237 C 263.969 172.237,263.742 172.063,263.660 171.851 C 263.579 171.639,263.274 171.465,262.982 171.465 C 262.690 171.465,262.385 171.292,262.304 171.080 C 262.222 170.868,261.991 170.694,261.790 170.694 C 261.588 170.694,261.357 170.521,261.275 170.308 C 261.191 170.089,260.808 169.923,260.384 169.923 C 259.962 169.923,259.639 169.784,259.637 169.602 C 259.636 169.425,259.144 169.051,258.545 168.770 C 257.945 168.490,257.363 168.114,257.249 167.935 C 257.136 167.756,256.587 167.609,256.028 167.609 C 255.265 167.609,255.013 167.506,255.013 167.194 C 255.013 166.880,254.827 166.807,254.242 166.893 C 253.625 166.983,253.470 166.912,253.470 166.536 C 253.470 166.151,253.262 166.067,252.314 166.067 C 251.457 166.067,251.157 165.967,251.157 165.681 C 251.157 165.381,250.814 165.296,249.614 165.296 C 248.415 165.296,248.072 165.210,248.072 164.910 C 248.072 164.594,247.629 164.524,245.630 164.524 C 243.630 164.524,243.188 164.455,243.188 164.139 C 243.188 163.797,231.433 163.753,138.942 163.753 L 34.697 163.753 34.765 171.530 M34.822 192.866 C 34.755 193.043,34.729 199.724,34.766 207.712 L 34.833 222.237 46.465 222.303 L 58.098 222.370 58.098 207.458 L 58.098 192.545 46.521 192.545 C 37.497 192.545,34.918 192.616,34.822 192.866 M34.874 235.649 C 34.780 235.742,34.704 240.600,34.704 246.444 L 34.704 257.069 46.404 257.069 L 58.103 257.069 58.036 246.337 L 57.969 235.604 46.851 235.531 C 38.553 235.476,35.733 235.532,35.733 235.755 C 35.733 235.975,35.643 235.978,35.388 235.766 C 35.198 235.609,34.967 235.556,34.874 235.649 " stroke="none" fill="#64544c" fill-rule="evenodd"></path><path id="path1" d="M14.773 85.861 C 14.773 93.567,14.806 96.719,14.846 92.866 C 14.886 89.013,14.886 82.709,14.846 78.856 C 14.806 75.003,14.773 78.156,14.773 85.861 " stroke="none" fill="#68544c" fill-rule="evenodd"></path><path id="path2" d="M14.773 85.861 C 14.773 93.567,14.806 96.719,14.846 92.866 C 14.886 89.013,14.886 82.709,14.846 78.856 C 14.806 75.003,14.773 78.156,14.773 85.861 " stroke="none" fill="#68544c" fill-rule="evenodd"></path><path id="path3" d="M14.773 85.861 C 14.773 93.567,14.806 96.719,14.846 92.866 C 14.886 89.013,14.886 82.709,14.846 78.856 C 14.806 75.003,14.773 78.156,14.773 85.861 " stroke="none" fill="#68544c" fill-rule="evenodd"></path><path id="path4" d="M14.773 85.861 C 14.773 93.567,14.806 96.719,14.846 92.866 C 14.886 89.013,14.886 82.709,14.846 78.856 C 14.806 75.003,14.773 78.156,14.773 85.861 " stroke="none" fill="#68544c" fill-rule="evenodd"></path></g></svg>