<?xml version="1.0" standalone="no"?>
<!DOCTYPE svg PUBLIC "-//W3C//DTD SVG 20010904//EN"
 "http://www.w3.org/TR/2001/REC-SVG-20010904/DTD/svg10.dtd">
<svg version="1.0" xmlns="http://www.w3.org/2000/svg"
 width="512.000000pt" height="512.000000pt" viewBox="0 0 512.000000 512.000000"
 preserveAspectRatio="xMidYMid meet">

<g transform="translate(0.000000,512.000000) scale(0.100000,-0.100000)"
fill="#000000" stroke="none">
<path d="M1870 4279 c-28 -11 -77 -55 -91 -81 -5 -9 -85 -528 -179 -1155 -93
-626 -173 -1150 -177 -1166 -6 -21 -43 109 -167 585 -87 337 -166 628 -174
646 -19 42 -70 81 -116 89 -50 8 -120 -21 -150 -60 -12 -18 -69 -137 -126
-264 l-103 -233 -189 0 c-187 0 -189 0 -213 -25 -33 -32 -33 -78 0 -110 24
-25 25 -25 231 -25 217 0 249 5 289 50 9 10 66 128 125 262 60 133 111 236
114 228 3 -8 78 -292 166 -630 94 -364 167 -625 178 -640 31 -41 81 -70 124
-70 90 0 149 55 167 155 6 33 85 557 176 1164 91 608 167 1106 169 1108 1 2
111 -645 243 -1438 196 -1174 244 -1445 260 -1467 71 -96 195 -96 266 0 16 22
59 261 228 1273 114 686 209 1249 211 1250 2 2 94 -400 206 -893 135 -597 208
-905 220 -922 66 -89 184 -94 254 -12 17 21 56 138 142 433 65 222 122 410
126 418 4 8 39 -82 89 -230 44 -134 90 -258 101 -276 52 -86 203 -89 257 -6
10 15 34 74 54 132 l36 106 153 5 c145 5 153 6 171 29 26 32 24 77 -6 106 -24
24 -27 25 -185 25 -178 0 -209 -7 -252 -59 -15 -17 -41 -76 -59 -131 -19 -55
-36 -100 -39 -100 -3 0 -43 112 -88 249 -46 137 -92 261 -102 274 -60 76 -194
73 -253 -5 -10 -13 -74 -213 -142 -444 -68 -230 -126 -412 -129 -404 -3 8 -93
407 -201 885 -107 479 -203 887 -212 908 -48 109 -200 118 -275 17 -15 -20
-64 -294 -226 -1268 -114 -683 -209 -1242 -212 -1242 -3 0 -110 631 -238 1403
-129 771 -238 1419 -243 1439 -24 94 -124 150 -209 117z"/>
</g>
</svg>
